<?xml version="1.0" encoding="UTF-8" standalone="no"?>
<svg
   id="svg"
   version="1.1"
   viewBox="0 0 299.41406 300"
   width="299.41406"
   height="300"
   xmlns="http://www.w3.org/2000/svg"
   xmlns:svg="http://www.w3.org/2000/svg">
  <defs
     id="defs110" />
  <svg
     version="1.1"
     id="svg110"
     width="100%"
     height="100%">
    <defs
       id="defs6">
      <clipPath
         id="clip-1">
        <rect
           x="0"
           y="0"
           transform="scale(0.14648)"
           width="2044"
           height="2048"
           fill="none"
           id="rect1" />
      </clipPath>
    </defs>
    <g
       clip-path="url(#clip-1)"
       fill="none"
       fill-rule="nonzero"
       stroke="none"
       stroke-width="1"
       stroke-linecap="butt"
       stroke-linejoin="miter"
       stroke-miterlimit="10"
       stroke-dasharray="none"
       stroke-dashoffset="0"
       font-family="none"
       font-weight="none"
       font-size="none"
       text-anchor="none"
       style="mix-blend-mode:normal"
       id="g110">
      <path
         id="path7"
         style="mix-blend-mode:normal;fill:#000000;fill-opacity:1"
         d="m 54.166016,4.1113281 c -4.8438,1.61694 -10.080175,3.7867134 -14.859375,5.7207031 -3.23716,1.3099798 -9.967823,3.8226208 -12.626953,5.6503908 -0.9271,0.63721 -5.553231,6.851758 -6.650391,8.236328 -2.4063,3.03677 -5.279151,6.557859 -7.599609,9.693359 -3.010276,3.81167 -3.6852792,4.282613 -3.8242192,9.251953 -0.3354301,1.13804 -1.0107019,9.728166 -1.1699219,11.384766 -0.15113,1.57251 -0.8547425,8.148784 -0.8203125,9.246094 -0.1344,2.05532 -0.6338388,5.232667 0.3320312,6.929687 0.64156,1.23853 1.7998256,2.877638 2.5722656,4.111329 l 4.6953128,7.625 5.480468,8.716796 c 1.239111,1.99775 3.405622,6.160788 5.332032,7.398438 1.10347,0.70898 3.905811,1.79887 5.207031,2.365238 3.71367,1.57954 7.400057,3.21842 11.060547,4.91797 1.1792,0.53435 3.486957,1.45328 4.460937,2 -3.02314,1.50673 -5.850285,2.22509 -8.578125,4.33007 -1.98384,1.53105 -2.884274,2.99063 -4.458984,4.82227 -1.25156,1.46514 -2.658156,2.78784 -4.197266,3.94726 -6.63135,4.91851 -13.962632,5.31885 -18.5761715,13.07227 -6.66625,11.20313 0.1405495,20.75391 -0.84375,32.54297 -0.27911,1.35791 -0.9088211,3.86132 -1.0820313,5.10351 -0.7443948,2.17383 -1.5848206,6.79395 -1.6191406,8.95899 2.37023,0.27246 5.2162054,0.88232 7.5410154,0.91601 5.91851,0.0835 12.525048,-3.77295 17.111328,-7.28125 4.96406,-3.79687 8.574953,-8.66406 11.820313,-13.93164 0.9457,-1.53662 1.789547,-3.31054 2.716797,-4.80468 2.09297,0.62988 3.616937,0.87939 5.810547,1.0332 -2.4186,3.03223 -3.381372,6.1836 -4.689453,9.76953 3.03296,-1.77539 6.22202,-3.27051 9.52539,-4.46875 -4.17847,5.50928 -7.564696,10.53076 -9.566406,17.2793 -1.02979,3.47168 -1.713036,7.1748 -2.691406,10.61718 2.40352,-1.55126 5.175687,-3.51513 7.585937,-4.9082 -0.95215,3.72217 -2.993702,6.92774 -3.826172,11.0293 -2.13809,10.53223 0.200383,21.52685 2.976563,31.73242 0.91699,3.35742 2.194333,6.85401 3.058594,10.08398 1.04077,-3.19481 2.124163,-6.37792 3.246093,-9.54492 0.78647,3.41455 1.50508,6.94433 2.59961,10.26368 3.98291,12.08056 11.581879,20.65282 20.880859,29.01562 -0.01714,-3.14063 0.305087,-9.35449 0.554688,-12.61523 l 0.138671,0.16601 c 1.91455,2.32764 3.537642,5.79639 5.738282,8.27344 6.31113,7.10449 16.741899,13.6997 24.892579,18.59961 0.36665,-0.83203 -0.0187,-1.30274 0.61914,-2.05274 -0.3646,-3.04834 -0.71758,-5.45361 -0.63672,-8.53125 6.85825,10.89551 11.70987,15.72657 22.94727,22.27735 -1.23062,-2.95312 -2.89044,-6.71924 -3.51563,-9.82031 3.33237,3.20215 6.33204,6.8291 9.95313,9.77343 0.59399,0.4834 1.77632,1.54347 2.38086,1.90821 1.04722,0.85986 1.90903,1.52245 3.01367,2.30468 1.17164,0.82734 2.14812,1.28852 3.46094,2.03711 l 1.10546,-0.47461 1.23047,-0.68554 c 3.67383,-2.70996 6.40284,-4.80713 9.72071,-7.93164 1.48975,-1.40186 5.43163,-5.76221 6.67382,-6.58985 -0.50684,2.31299 -1.43604,4.53418 -2.29296,6.74024 0.43505,0.67969 0.48974,0.93311 1.2207,1.23047 6.93896,-3.98438 12.2627,-8.61133 16.93554,-15.12696 1.24073,-1.73145 2.25977,-3.74755 3.57227,-5.4043 l 0.14453,-0.18164 c 0.0322,3.50684 -0.51514,7.91211 -1.38086,11.29297 2.93115,-1.63184 6.16261,-3.75732 8.97071,-5.625 7.43262,-4.94531 14.7539,-9.59473 19.72851,-17.21484 0.66797,-0.88623 1.27734,-1.81641 1.82227,-2.7832 0.4043,-0.61816 0.875,-1.39356 1.34375,-1.94727 0.28857,2.0625 0.31641,4.31591 0.43945,6.41797 0.0937,1.58936 0.29688,3.43799 0.33203,4.99219 0.77051,-0.0879 1.66357,-1.81201 2.95117,-2.33203 l 0.23828,0.20898 c 0.77197,-0.49951 4.66016,-4.6167 5.38672,-5.40625 5.83887,-6.35596 10.41308,-13.7163 12.81836,-22.04688 0.81445,-2.81689 1.29395,-5.75439 2.14063,-8.60351 0.79834,1.78564 2.81933,7.74414 3.36133,9.61914 3.71045,-12.39258 8.43164,-27.81494 6.1582,-40.90625 -0.68848,-3.95801 -2.65918,-8.37988 -4.14453,-12.17969 2.09326,1.1499 5.83105,3.62159 7.70312,5.05274 -1.08691,-3.80273 -1.86181,-7.95753 -3.04101,-11.72071 -1.82227,-5.81836 -5.5215,-11.40234 -9.28907,-16.13672 3.51709,1.12793 6.28857,2.50147 9.49219,4.31641 -1.47949,-4.31104 -2.2373,-5.80468 -4.47265,-9.77734 2.58398,-0.082 2.94921,-0.14062 5.48046,-0.92578 1.01221,1.33447 2.02783,3.32859 2.97852,4.91797 6.01172,10.04296 16.58252,20.40819 28.88867,21 1.73877,0.0835 5.57813,-0.6499 7.43555,-0.90626 -0.46143,-4.43994 -1.4917,-8.51171 -2.50977,-12.84179 -0.52148,-2.2207 -0.479,-4.61377 -0.32812,-6.87695 0.27832,-2.28516 0.92676,-4.88135 1.11719,-7.02735 l 0.0645,-0.29492 c 0.37207,-1.68896 0.63232,-3.91651 0.81836,-5.63477 0.58447,-1.56855 0.11328,-7.07176 -0.56055,-8.70507 -0.33398,-1.55669 -1.28125,-3.60293 -2.06055,-4.98633 -3.37793,-7.00137 -13.4375,-9.27495 -19.41992,-13.88672 -3.24609,-2.5021 -5.16405,-6.3015 -8.5039,-8.6211 -2.47412,-1.71768 -5.45263,-2.58935 -8.09961,-4.00585 4.42822,-1.7543 8.74267,-3.75884 13.10937,-5.66797 2.71875,-1.18857 5.63525,-2.320946 8.23828,-3.757816 0.50244,-0.27817 0.82032,-0.742634 1.08399,-1.240234 2.77148,-4.24658 5.58398,-8.856293 8.23242,-13.189453 0.47314,-0.41763 3.28369,-5.252293 3.72461,-6.039063 1.52051,-2.3666 3.00244,-4.779732 4.49805,-7.164062 0.80127,-0.86514 0.63232,-2.452197 0.5664,-3.529297 -0.34717,-5.70059 -1.00684,-11.371431 -1.52539,-17.056641 l -0.66211,-7.513672 c -0.43066,-4.956589 -0.70751,-4.991754 -3.97851,-8.865234 -0.55518,-0.74648 -1.16358,-1.507515 -1.75391,-2.234375 -4.03418,-4.96831 -7.69677,-10.263819 -11.91406,-15.074219 -0.47168,-0.53848 -1.02045,-0.912111 -1.63282,-1.269531 -1.16309,-0.75684 -6.5874,-2.865937 -8.20312,-3.492187 -5.92969,-2.2965708 -12.1582,-5.0648671 -18.15234,-7.0371098 3.56396,5.13759 6.90526,10.7714348 10.24218,16.0781248 1.33008,2.11553 2.83594,4.252593 3.84375,6.533203 0.94922,3.46553 1.40284,7.192633 2.06641,10.726563 0.15674,1.4502 1.27148,5.49234 0.89062,6.78125 -0.76024,2.57563 -2.73438,5.24404 -4.09374,7.712891 -0.85107,1.548189 -4.19727,8.666111 -5.52735,9.332031 -2.56201,1.28247 -6.29639,2.341112 -9.06055,3.451172 -2.83008,0.96548 -8.3125,3.365528 -10.97851,3.886718 -0.60645,-1.32246 -1.28125,-2.897455 -1.95508,-4.166015 -4.22314,-0.01172 -8.58448,0.549075 -12.9043,0.634765 -4.47949,-4.63608 -9.19678,-9.155225 -13.70703,-13.791015 -1.42383,-1.46353 -5.35155,-5.639748 -6.64648,-6.548828 -1.40039,-0.98247 -6.88086,-2.927441 -8.84375,-3.712891 l -16.64649,-6.777344 c -2.40234,-0.99858 -5.39694,-2.084959 -7.63672,-3.224609 -0.26221,-0.68291 -0.55175,-1.488281 -0.83593,-2.150391 -1.57471,-1.20645 -5.81689,-2.726568 -7.86914,-3.611328 -1.64209,-0.70811 -4.41455,-2.009326 -6.02149,-2.572265 -1.59229,0.40107 -5.53544,2.291405 -7.25195,3.009765 -1.90532,0.79746 -4.95869,1.93349 -6.6582,2.849609 -0.53203,0.935891 -0.77007,1.665772 -1.13672,2.675782 -7.92173,3.13301 -15.81572,6.333105 -23.68164,9.603515 -2.3439,0.95728 -7.79581,2.858981 -9.65235,4.150391 -0.65098,0.45293 -4.751989,4.640576 -5.462888,5.353516 L 85.878906,60.820312 c -1.03477,1.04092 -3.237692,3.400683 -4.257812,4.226563 -4.30327,0.03296 -8.651077,-0.646437 -12.779297,-0.591797 -0.54272,1.09629 -1.513181,3.229634 -2.150391,4.152344 -1.75239,-0.35522 -19.069539,-6.765235 -20.474609,-7.640625 -1.45781,-2.29761 -8.825251,-15.239892 -8.994141,-17.013672 -0.20977,-2.20166 1.140287,-7.564602 1.560547,-9.914063 0.35288,-1.971969 0.566313,-4.003908 1.007813,-5.955078 0.17988,-0.79497 0.43618,-1.537251 0.80664,-2.263672 1.89697,-3.720849 4.435401,-7.285008 6.650391,-10.830078 2.22129,-3.555 4.404889,-7.5427959 6.917969,-10.8789059 z M 39.501953,16.017578 c -1.49648,2.57095 -3.409721,5.261235 -4.675781,7.896484 -0.82427,1.715921 -1.140623,4.666799 -1.533203,6.542969 -0.84448,4.03608 -1.295557,9.414649 -2.316407,13.292969 l -7.99414,2.496094 c 0,0 -3.269627,-0.244042 -3.416016,-0.13086 h -0.002 v 0.002 l -0.002,0.002 c -1.46133,-2.00259 -2.910989,-4.014229 -4.349609,-6.033203 1.23003,-2.28765 13.957132,-18.794869 15.419921,-19.923829 2.343022,-1.80806 6.129301,-2.905561 8.869141,-4.144531 z m 221.369137,0.185547 c 1.83988,0.574967 7.5337,2.953615 8.85938,4.173828 1.7168,1.58086 5.29199,6.623056 6.82422,8.603516 l 5.34765,6.894531 c 0.90088,1.16704 2.3584,2.957526 3.07618,4.160156 -1.52637,1.92964 -2.97949,4.05152 -4.50586,6.03711 0,0 -3.18205,0.338089 -3.36719,0.222656 h -0.002 l -0.002,-0.002 -0.002,-0.002 v -0.002 l -0.002,-0.002 v -0.002 -0.002 l 0.002,-0.002 v -0.002 l 0.002,-0.002 v -0.002 l 0.002,-0.002 0.002,-0.002 c 0.005,-0.0041 0.0141,-0.0086 0.0234,-0.01367 l -8.07227,-2.558593 c -0.50977,-3.69463 -1.24267,-7.613665 -1.87695,-11.285157 -0.28857,-1.671389 -1.0332,-6.883748 -1.63672,-8.173828 -1.02393,-2.190663 -3.34472,-5.894486 -4.67188,-8.037109 z M 149.6543,29.130859 c 1.33301,-0.06021 8.20361,3.350776 10.0039,4.134766 -0.1084,5.73384 -0.001,11.856108 0,17.611328 L 159.63867,95.5 c -3.03369,-0.0416 -6.06787,-0.06679 -9.10156,-0.07617 l -10.20508,0.06641 0.01,-62.140625 c 3.08613,-1.38779 6.29639,-2.7126 9.3125,-4.21875 z m 17.88086,9.544922 c 0.28125,0.06621 0.86572,0.217138 1.13086,0.330078 4.55273,1.94297 9.03515,3.675294 13.61132,5.589844 3.88184,1.62422 8.62939,3.298831 12.29883,5.238281 0.646,0.34146 3.90821,3.715234 4.71094,4.527344 l 6.93555,6.966797 c 0.82617,0.84199 5.65137,5.404827 5.9707,6.117187 -0.17578,0.44707 -0.0332,0.242092 -0.5957,0.519532 -0.8584,0.36855 -1.77442,0.724215 -2.64454,1.078125 -0.99022,-0.75205 -3.15918,-3.130612 -4.1582,-4.175781 l -8.09375,-8.525391 c -3.38965,-3.59575 -4.26318,-4.616498 -9.07812,-6.271485 -2.31885,-0.79702 -5.03613,-2.240772 -7.40625,-3.164062 -2.98535,-1.16353 -6.2085,-2.486526 -9.00782,-4.035156 -0.87012,-0.51621 -3.05858,-3.299123 -3.67382,-4.195313 z m -32.58204,1.330078 c -0.65612,0.89619 -2.99,3.679103 -3.91796,4.195313 -2.98539,1.54863 -6.42365,2.871626 -9.60743,4.035156 -2.52766,0.92329 -5.42544,2.367043 -7.89843,3.164063 -5.13499,1.65498 -6.06668,2.675734 -9.68164,6.271484 l -8.630863,8.525391 c -1.06542,1.04517 -3.379497,3.425684 -4.435547,4.177734 -0.92794,-0.35391 -1.904854,-0.711528 -2.820312,-1.080078 -0.59992,-0.27744 -0.447296,-0.07246 -0.634766,-0.519531 0.34056,-0.71236 5.486097,-5.275198 6.367187,-6.117188 l 7.394531,-6.966797 c 0.85609,-0.81211 4.3384,-4.185884 5.02734,-4.527344 3.91335,-1.93945 8.97537,-3.612108 13.11524,-5.236328 4.88035,-1.91455 9.66026,-3.648826 14.51562,-5.591796 0.28276,-0.112941 0.90713,-0.263869 1.20703,-0.330079 z m 29.92188,0.07813 c 0.79688,0.55503 4.72851,5.56592 5.625,6.63086 6.19922,7.29639 12.35547,14.62964 18.4668,22 1.61279,1.94473 4.23485,4.720216 5.5664,6.628906 -0.95947,0.87554 -2.09766,1.552051 -3.09375,2.363281 -1.48682,1.21011 -2.95752,2.42441 -4.45312,3.625 -1.65674,1.33359 -3.30273,2.681056 -4.9375,4.041016 -1.38428,1.16323 -2.97167,2.598189 -4.44531,3.574219 -3.61377,-4.92305 -9.04151,-10.155714 -12.73438,-15.027344 -0.19629,-3.48545 -0.0337,-8.409866 -0.0352,-12.066406 z m -28.40039,1.732422 0.0371,21.769532 c -0.001,3.65654 0.15174,8.580956 -0.0312,12.066406 -3.44275,4.87163 -8.5021,10.10234 -11.87109,15.02539 -1.37383,-0.97603 -2.85402,-2.410988 -4.14454,-3.574218 -1.52404,-1.35996 -3.05898,-2.705473 -4.60351,-4.039063 -1.39429,-1.20059 -2.76428,-2.41489 -4.15039,-3.625 -0.92863,-0.81123 -1.99028,-1.487741 -2.88477,-2.363281 1.24136,-1.90869 3.68592,-4.684176 5.18945,-6.628906 5.69739,-7.37036 11.43747,-14.703612 17.2168,-22 0.83577,-1.06494 4.49929,-6.07583 5.24219,-6.63086 z M 12.914062,44.039062 c 1.00109,1.406991 2.732775,3.726609 3.542969,5.199219 -1.145352,4.28394 -3.197854,9.510689 -4.611328,13.824219 -0.287072,0.88228 -0.566173,1.770162 -0.892578,2.638672 -0.0306,-1.50088 1.523784,-20.88355 1.960937,-21.66211 z m 272.652348,0.01563 c 0.43945,0.778559 2.00146,20.161229 1.9707,21.662109 -0.32812,-0.86851 -0.60986,-1.756392 -0.89844,-2.638672 -1.4209,-4.31353 -3.48339,-9.540279 -4.63476,-13.824219 0.81445,-1.47261 2.55615,-3.792228 3.5625,-5.199218 z m -16.87696,2.541015 c 2.08447,0.40811 8.0957,2.249613 10.19336,3.095703 -2.07129,6.03794 -4.41406,12.061078 -6.70508,18.023438 -0.84229,2.19331 -3.10741,8.633245 -4.21484,10.291015 -2.96338,-4.26108 -6.14941,-8.988213 -9.24609,-13.123047 3.23637,-6.132626 6.53354,-12.256339 9.97265,-18.287109 z m -237.583981,0.0078 0.134765,0.01953 c 0.40986,0.49438 3.23838,5.631349 3.69336,6.505859 1.99893,3.84375 4.635495,7.931688 6.515625,11.736328 -1.61206,2.3064 -3.292192,4.576123 -4.919922,6.876954 -1.40786,1.990138 -2.980811,4.473489 -4.582031,6.287109 -1.17891,-2.04932 -2.498479,-6.201608 -3.417969,-8.580078 -1.48359,-3.78237 -2.932853,-7.579202 -4.345703,-11.388672 -0.81548,-2.14424 -2.48477,-6.376228 -2.875,-8.492188 2.82612,-0.97148 6.932365,-2.147313 9.796875,-2.964842 z M 256.38867,66.673828 c 0.36914,0.2395 9.14503,12.714452 9.6211,13.794922 -8.11963,3.53774 -17.29346,7.69849 -25.49805,10.875 -0.91264,-3.472457 -2.29219,-6.676827 -3.1582,-10.130859 -0.82031,-2.08345 -1.73292,-4.795168 -2.1211,-6.960938 3.19189,-1.31602 7.14258,-2.577881 10.41211,-3.775391 3.32227,-1.216988 7.40576,-2.894094 10.74414,-3.802734 z M 43.875,66.888672 c 0.03688,-0.0019 0.07847,-0.002 0.123047,0 1.723775,0.07764 8.96322,2.975704 10.074219,3.408203 3.51606,1.36919 7.520611,2.442679 10.925781,3.980469 -0.27407,1.39805 -4.749076,14.99043 -5.509766,17.125 -6.40166,-2.47822 -12.808882,-5.614156 -19.201172,-8.191406 -1.95674,-0.788962 -4.4644,-1.915144 -6.27539,-2.953126 3.10986,-4.391019 6.263328,-9.149326 9.642578,-13.296874 0.03556,-0.04365 0.110061,-0.06671 0.220703,-0.07227 z m -30.376953,1.958984 c 0.93894,0.98657 2.088326,2.125788 2.884765,3.205078 1.27339,0.79702 10.860111,12.303758 12.3125,13.960938 -0.52983,1.70391 -1.08066,3.173584 -1.71289,4.839844 -0.43345,-0.59502 -0.942683,-1.278077 -1.320313,-1.910157 -3.47754,-5.8207 -7.304836,-11.529054 -10.691406,-17.396484 -0.65041,-1.02319 -0.952866,-1.597799 -1.472656,-2.699219 z m 272.699223,0.427735 c 0.0601,0.59971 -12.37451,20.958646 -13.01758,21.373047 -0.43066,-0.250783 -0.35449,-0.372904 -0.59766,-0.964844 -0.45264,-1.3021 -0.83594,-2.408157 -1.1875,-3.748047 l 9.54688,-10.847656 c 1.66113,-1.87134 3.5083,-4.05074 5.25586,-5.8125 z m -72.31641,0.759765 c 0.23877,0.18647 0.37402,0.480855 0.46484,0.771485 2.06543,6.74399 4.38428,13.427927 6.41602,20.179687 1.36523,4.53662 3.10791,9.182812 4.26953,13.751952 -0.99756,-0.20347 -1.62305,-0.39267 -2.5957,-0.70117 l -1.03516,-0.40625 c -2.83887,-8.689464 -6.02539,-17.387313 -8.91992,-26.070313 -0.68408,-2.04844 -1.38379,-4.105133 -1.92578,-6.195313 1.24658,-0.56997 2.03124,-0.898238 3.32617,-1.330078 z M 72.123047,70.589844 c 1.73599,0.01113 5.588728,0.250048 7.361328,0.486328 -1.15312,4.06523 -2.63984,8.311578 -3.96875,12.330078 -0.91567,2.7687 -2.069385,7.023634 -3.328125,9.615234 -1.59448,-1.01968 -3.481887,-1.759373 -5.242188,-2.470703 l -1.126953,-0.292969 c 2.17969,-6.55356 4.161768,-13.140188 6.304688,-19.667968 z m 155.957033,0.05078 c 0.40283,1.89785 1.12987,3.84258 1.66015,5.71875 1.12939,4.00225 2.64453,7.900682 3.73438,11.914063 -0.0147,0.61553 0.0698,1.764843 -0.23047,2.214843 l -0.18164,0.103516 c -1.37256,0.50112 -3.91894,1.814852 -5.24609,2.539062 -1.9834,-5.47764 -3.68067,-11.206398 -5.56446,-16.736328 -0.60205,-1.763667 -1.03222,-3.613082 -1.65039,-5.380859 2.43018,-0.24624 5.03516,-0.339357 7.47852,-0.373047 z m -142.554689,0.72461 c 1.38101,0.43184 2.217435,0.762062 3.546875,1.332032 -0.57802,2.09018 -1.323185,4.144919 -2.052735,6.193359 -3.08693,8.683 -6.486102,17.380836 -9.513672,26.070315 l -1.103515,0.40625 c -1.0373,0.3085 -1.703718,0.4977 -2.767578,0.70117 1.23883,-4.56914 3.096754,-9.213381 4.552734,-13.750001 2.16679,-6.75176 4.639077,-13.43765 6.841797,-20.18164 0.09686,-0.29063 0.241454,-0.585015 0.496094,-0.771485 z M 195.5,78.054688 c 0.34424,2.008887 0.4292,4.656444 0.68555,6.802734 0.55664,4.64473 1.43847,9.563128 1.78125,14.205078 -1.8208,-0.07192 -3.92139,-0.436332 -5.75977,-0.695312 -2.64844,-0.372361 -5.30468,-0.697503 -7.96484,-0.976563 -1.12061,-0.12788 -2.23779,-0.268215 -3.35547,-0.421875 -0.34424,-1.53032 -0.96388,-4.49404 -1.08399,-5.9375 2.06836,-1.98472 4.98047,-4.17715 7.23047,-6 2.77148,-2.24517 5.65137,-4.852683 8.4668,-6.976562 z m -87.57617,1.732421 c 2.62473,2.12388 5.31077,4.731393 7.89453,6.976563 2.0976,1.82285 4.81196,4.01528 6.74023,6 -0.11198,1.44346 -0.68884,4.40718 -1.00976,5.9375 -1.04198,0.15366 -2.0842,0.293995 -3.12891,0.421875 -2.47998,0.27906 -4.95673,0.60419 -7.42578,0.976563 -1.71387,0.25898 -3.67167,0.62341 -5.36914,0.69531 0.31956,-4.641909 1.13926,-9.562299 1.6582,-14.207029 0.23899,-2.14629 0.3197,-4.791892 0.64063,-6.800782 z m 161.48828,9.050782 c 0.39551,1.45562 0.93115,3.185993 1.24023,4.626953 -4.396,2.1293 -9.43652,4.082673 -13.94531,6.105468 -1.53369,0.687298 -6.01367,2.763528 -7.35547,3.197268 -0.73389,0.39434 -3.57715,1.84556 -4.3125,1.50586 0.28564,-0.7708 2.74903,-2.07169 3.57227,-2.56446 3.75439,-2.672134 8.72168,-5.411083 12.65625,-7.960933 2.21191,-1.43335 5.90039,-3.849896 8.14453,-4.910156 z m -238.703126,0.002 c 1.34165,0.47373 5.855171,3.467865 7.337891,4.447265 3.85942,2.54883 8.790432,5.19803 12.482422,7.830084 0.703839,0.393 2.548203,1.48974 3.728515,2.38672 0.233549,0.17759 0.439891,0.34696 0.607422,0.50195 0.16806,0.15532 0.295467,0.29545 0.369141,0.41406 -0.01003,0.005 -0.02163,0.008 -0.0332,0.0117 -0.03485,0.0103 -0.07516,0.0163 -0.123047,0.0176 -0.191487,0.006 -0.482228,-0.0583 -0.832031,-0.16602 -0.464881,-0.14319 -1.033998,-0.36459 -1.609375,-0.60742 h -0.002 c -1.152006,-0.48626 -2.330583,-1.0573 -2.763672,-1.25195 -6.87466,-2.841669 -13.682759,-5.844048 -20.417969,-9.001958 0.29077,-1.3752 0.815239,-3.277291 1.255859,-4.582031 z M 150.06445,100.01953 c 1.95264,1.74229 7.22022,5.70864 8.50782,7.57031 0.5127,9.61831 1.16309,19.22857 1.95117,28.82813 0.1377,1.91177 0.16455,3.78252 0.28906,5.67187 0.44678,7.04399 0.99462,14.07911 1.64648,21.10743 -3.56543,2.45654 -9.08349,6.18847 -12.29296,8.94531 -0.8291,-0.44971 -2.98086,-2.15089 -3.88672,-2.80274 l -8.59571,-6.09961 c 0.0105,-1.53369 0.26124,-3.53369 0.37696,-5.11132 l 0.80664,-11.60547 2.69336,-39.21485 c 1.12163,-1.54277 6.73291,-5.89247 8.5039,-7.28906 z m -7.66601,1.10547 c -1.59478,1.45796 -3.88062,2.77852 -5.38867,4.33594 -0.64937,4.48066 -0.41432,10.2958 -1.41407,14.91211 -2.48379,0.19893 -5.02988,0.22924 -7.52539,0.39257 -5.86406,0.36594 -11.71787,0.88745 -17.55469,1.56055 -14.53207,1.68574 -26.163812,4.21748 -40.310542,7.53125 l -1.658203,0.49219 c -0.03252,-5.85688 -0.01504,-11.71372 0.05469,-17.57031 4.12046,-1.61733 10.986425,-3.27481 15.396485,-4.33594 18.89209,-4.5457 37.14585,-6.50268 56.52148,-7.30469 0.57041,-0.0376 1.29473,-0.0151 1.87891,-0.0137 z m 15.84961,0.0625 c 21.43213,0.34336 42.74853,3.2358 63.49804,8.61719 2.44482,0.6501 7.77393,1.91821 9.69141,2.97656 0.0381,5.8377 0.0381,11.67612 0,17.51367 -21.96094,-5.90566 -44.53662,-9.2271 -67.26953,-9.89844 -0.13916,-1.20264 -0.17919,-2.79267 -0.27735,-4.04101 -0.30761,-3.59883 -0.55175,-7.20337 -0.73632,-10.81055 -1.20996,-1.31367 -3.34033,-2.72822 -4.90625,-4.35742 z M 48.390625,112.2168 c 3.75103,-0.19629 11.36142,2.39423 14.59375,4.36914 -0.14019,6.20801 -0.04472,12.07592 0.0098,18.27148 -3.74077,-4.47891 -5.583837,-7.14882 -10.160157,-10.89648 1.73057,-1.98472 3.29341,-2.5668 5.625,-3.58985 -3.44165,-0.31318 -4.028708,-0.51201 -6.736328,1.96094 -6.93398,6.33281 -6.446631,17.02026 -8.800781,25.38086 -1.59565,5.66748 -6.644632,12.60352 -10.164063,17.34375 -3.09448,3.92871 -7.081633,5.96875 -11.214843,8.25391 -3.48501,1.93359 -5.157554,2.42235 -9.058594,2.33593 0.6341,-4.28467 2.442192,-8.36963 2.326172,-13.00586 -0.1767,-7.33301 -3.347316,-14.71504 -1.884766,-22.04101 0.53161,-2.66309 2.841312,-6.67651 5.107422,-8.16992 3.2874,-2.16636 7.12183,-3.41645 10.537109,-5.61328 -2.10322,4.92642 -3.514846,10.64497 -5.904296,15.75976 2.57988,-2.22598 6.001662,-7.21327 7.789062,-10.22265 2.21514,-3.72979 4.142044,-7.9276 6.371094,-11.68946 2.01328,-3.39756 3.672169,-5.23822 7.386719,-6.75976 1.53413,-0.68145 2.412744,-1.21157 4.177734,-1.6875 z m 202.240235,0.0137 c 1.71194,0.009 2.72296,0.57104 4.42383,1.31445 1.52783,0.74648 3.86817,1.63837 5.04297,2.94531 5.42871,6.03604 7.64794,14.35523 12.79687,20.67383 1.53223,1.88086 2.25873,3.63043 4.27735,5.09571 -2.19874,-4.86621 -3.58302,-10.77403 -5.78907,-15.47266 1.34619,0.6665 2.88135,1.52055 4.25391,2.22851 1.73145,0.89269 4.47216,2.11329 5.95312,3.19727 10.59375,7.75371 3.72608,20.51905 3.625,30.95313 -0.0278,2.94141 1.7129,9.34033 2.2461,12.29492 -1.53223,1.17334 -5.54249,-0.542 -7.12891,-1.22461 -2.85791,-1.37695 -9.04296,-5.03907 -11.05273,-7.14258 -3.86865,-4.05176 -10.28857,-13.44629 -11.875,-18.67578 -2.58691,-8.52598 -2.17627,-21.61445 -10.4043,-27.14453 -1.98486,-1.33433 -3.09912,-1.25855 -5.24805,-0.85352 2.40088,1.03418 3.72218,1.53262 5.41407,3.60156 -2.48438,1.98604 -3.86183,3.32618 -5.90821,5.83985 -1.43848,1.76792 -2.53027,3.28476 -4.24414,4.82226 0.0132,-4.56753 0.14208,-9.12686 0.16406,-13.69336 0.006,-1.45752 0.006,-2.87348 -0.25,-4.31445 3.12012,-1.84717 9.46241,-3.95996 12.92383,-4.41406 0.27722,-0.0222 0.53474,-0.0326 0.7793,-0.0312 z m -3.02734,7.07031 c -0.84521,0.0432 -1.55567,0.0331 -2.36719,0.27344 l 0.0586,0.13086 c 1.09863,0.31773 2.36182,0.47246 3.35352,0.79883 2.73633,0.8524 4.66162,2.62934 6.04297,5.08398 2.93994,5.22041 4.81542,11.79058 5.69726,17.67969 1.04737,6.98481 2.37451,10.57666 6.58594,16.34961 2.05224,2.81396 3.0415,4.64844 5.72656,7.26758 0.49952,0.47314 1.07276,1.04687 1.58985,1.48632 -1.63477,-4.13672 -4.37891,-8.20507 -6.61133,-12.07226 -0.9126,-1.58056 -2.13965,-3.41504 -2.85742,-5.08789 -0.52881,-1.23487 -0.90332,-3.36816 -1.18165,-4.72461 -0.87157,-4.2583 -1.37256,-8.7145 -2.50195,-12.91992 -0.73974,-2.758 -2.57812,-5.92359 -3.83203,-8.50977 -0.6709,-1.37973 -2.54003,-4.40981 -3.98437,-4.99414 -1.13964,-0.4607 -4.46777,-0.84683 -5.71875,-0.76172 z m -196.324223,0.0234 c -0.402519,0.0166 -0.789648,0.0533 -1.146485,0.11133 -2.354449,0.36006 -4.377099,0.60038 -5.724609,2.82226 -1.87603,3.09331 -4.131302,7.16602 -5.232422,10.61133 -1.10434,3.45542 -1.468997,7.28711 -2.216797,10.82617 -0.41279,2.1753 -0.884183,5.71973 -1.751953,7.69141 -1.04678,2.37744 -3.071046,5.27148 -4.441406,7.53906 -1.85157,3.10547 -3.579488,6.28321 -5.179687,9.52344 1.04707,-0.90673 1.934231,-1.70703 2.925781,-2.67383 3.20727,-3.72509 7.518705,-10.11816 9.572265,-14.73242 0.59399,-1.33447 1.247461,-5.90083 1.587891,-7.59961 1.33828,-6.67778 3.242281,-17.269 9.087891,-21.56641 1.69732,-1.24775 4.112158,-1.88843 6.136718,-2.21289 -1.065562,-0.25972 -2.409631,-0.38948 -3.617187,-0.33984 z m 120.505863,7.35156 c 5.97363,0.19746 15.04635,1.17163 20.88672,2.01758 -3.54053,3.48252 -8.51661,7.64131 -12.35743,10.87891 -1.71533,1.52373 -6.06006,5.44795 -7.85742,6.53515 -2.1123,-1.33125 -4.19726,-2.70469 -6.25391,-4.11914 -0.25927,-2.26553 -0.3457,-5.37232 -0.55664,-7.79883 1.10303,-1.65381 4.76905,-6.07681 6.13868,-7.51367 z m -43.59375,0.004 c 2.24663,2.1085 4.14711,5.20703 6.3164,7.33398 -0.31143,2.62969 -0.36817,5.22729 -0.70508,7.84571 -1.68823,1.6872 -4.28747,3.07436 -6.38085,4.33398 -2.06441,-1.71782 -4.1108,-3.45918 -6.13477,-5.22461 l -9.27149,-8.06641 c -1.36991,-1.19268 -3.3269,-3.09932 -4.7207,-4.10742 5.354,-0.97061 13.27344,-1.62178 18.81055,-2 0.66841,-0.0585 1.40992,-0.0799 2.08594,-0.11523 z m -41.318363,5.61914 c 0.63633,0.1667 4.965624,3.63368 5.177734,4.2539 1.25361,3.66782 1.493751,7.8085 3.962891,11.08594 0.77373,1.02686 3.429782,4.48634 4.576168,4.97852 4.88013,2.09912 10.83351,2.92383 16.04688,3.93164 -1.73628,0.56689 -4.26831,1.64648 -6.01367,2.32031 L 99.470703,163.125 c -3.09609,-3.60059 -7.06811,-7.30567 -10,-10.78906 2.22598,4.56006 5.731836,10.78319 8.316406,15.24218 2.366461,-0.63866 21.451611,-7.5288 22.089841,-7.42187 l -0.0234,0.22656 c -0.83496,1.39746 -2.27555,4.7295 -3.17774,6.48438 -3.97339,7.81348 -7.84449,15.67969 -11.61133,23.5957 -1.11533,2.28516 -2.14233,5.125 -3.44531,7.24023 -0.38394,0.62256 -2.400886,1.35597 -3.128906,1.6504 -0.19365,-3.81738 -0.491995,-7.6167 -0.765625,-11.42969 -0.1251,-1.74316 0.0044,-3.97851 -0.550781,-5.61328 -0.41411,-1.22021 -13.692673,-16.1294 -15.751953,-18.70313 -0.20303,-2.86816 0.280803,-6.54003 0.445313,-9.41406 0.22793,-3.79102 0.414798,-7.57905 0.636718,-11.37109 0.12788,-2.18657 0.398396,-4.44746 0.291016,-6.63477 -0.04585,-0.93296 -0.334572,-1.80625 -0.638672,-2.68164 1.58276,-0.36226 3.154397,-0.76523 4.716797,-1.20703 z m 126.171873,0.0976 c 0.89941,0.0845 3.70068,0.76265 4.72461,0.98633 -0.81299,4.6415 -0.14404,7.71567 -0.0195,12.31836 0.15381,5.77266 1.05567,12.13721 0.94727,17.82227 -1.33447,1.98193 -3.67579,4.35889 -5.25782,6.21484 -1.99951,2.34668 -4.04394,4.71533 -6.03906,7.06055 -1.01514,1.19385 -4.02295,4.187 -4.41992,5.51562 -0.37646,1.26563 -0.54834,4.8208 -0.65235,6.26953 -0.23876,3.59326 -0.50439,7.18506 -0.79882,10.7754 -0.35303,-0.14209 -0.70264,-0.28712 -1.05274,-0.4336 -2.60596,-1.1001 -2.68212,-2.52783 -3.82031,-4.91992 l -3.97266,-8.35742 -8.88281,-18.07813 c -1.16162,-2.41846 -2.2998,-4.45605 -3.32226,-6.96093 -0.0483,-0.13624 -0.0469,-0.23682 -0.0645,-0.38477 0.66797,-0.0498 19.74756,6.6836 21.86133,7.41016 0.93457,-1.30225 2.3667,-4.11426 3.17969,-5.57032 1.78564,-3.20361 3.58984,-6.46094 5.18945,-9.75976 -2.85205,2.89453 -7.354,8.37793 -10.23828,10.74804 -1.72559,-0.85107 -4.31787,-1.75048 -6.15625,-2.44921 -3.59033,-1.3916 -7.19971,-2.72657 -10.82812,-4.00977 4.45166,-1.1001 11.01074,-1.85449 15.20898,-3.51563 3.1875,-1.26269 7.3291,-7.64892 8.0293,-11.00195 0.23291,-1.1146 0.96484,-4.60996 1.41601,-5.37695 0.72803,-1.23472 3.70898,-3.38648 4.96875,-4.30274 z m 12.69922,2.59375 c 1.87499,0.83833 3.75586,1.19674 5.6543,2.00196 1.80176,5.74541 3.67822,6.91919 7.99218,10.74023 -1.77978,-0.60645 -3.58642,-1.81264 -5.31054,-2.7207 1.70361,2.98066 4.39697,5.4873 6.85937,7.82226 l 1.40039,1.22852 c -2.87842,-1.42236 -6.41211,-2.44628 -9.21875,-4.17773 -1.13672,-0.70166 -2.45019,-1.78028 -3.51953,-2.6211 1.46777,0.44385 2.56983,0.84424 3.98633,1.39063 -1.63623,-2.29497 -2.24854,-3.99957 -3.57422,-6.21485 -1.63769,-2.73939 -2.89258,-4.50885 -4.26953,-7.44922 z m -151.433593,0.0215 c -1.04326,2.56714 -2.655271,4.78544 -3.988281,7.15234 -1.13145,2.00933 -1.626948,3.25875 -2.986328,5.24024 l 0.726562,0.0488 c 0.20684,0.3208 0.155707,0.19141 0.216797,0.56641 0.63853,-0.24902 1.523102,-0.49023 2.195312,-0.69531 -2.55835,1.90723 -4.427194,3.39892 -7.458984,4.51953 -1.68633,0.62256 -3.317388,1.42236 -5.048828,2.02734 2.88267,-2.2251 5.799167,-5.6334 7.992187,-8.54492 -1.66758,0.64907 -3.368847,1.59083 -5.179687,2.30274 4.47715,-4.2167 6.071151,-4.48184 7.884765,-10.7168 2.140873,-0.58242 3.615625,-1.10264 5.646485,-1.90039 z m 125.265623,1.49023 c 0.22119,0.009 0.0986,-0.0221 0.33594,0.17188 0.26221,2.25396 -0.17286,5.56762 -1.24805,7.58398 -2.71143,5.08359 -8.73047,6.70801 -13.77539,4.05078 -0.42041,-0.22998 -0.44531,-0.24169 -0.80273,-0.55664 l -0.0195,-0.31054 c 0.50537,-1.00825 1.56152,-1.63608 2.49609,-2.36719 2.21777,0.95728 5.16064,1.54424 6.93164,-0.64453 1.46924,-1.81406 1.15039,-3.977 0.9043,-6.12696 1.74023,-0.46479 3.49023,-1.16197 5.17773,-1.80078 z m -99.37109,0.11133 c 1.30181,0.13799 4.10332,1.24722 5.43164,1.73047 -0.20259,2.99429 -0.20664,6.72437 3.61133,7.50586 1.47407,0.30176 2.86743,-0.19024 4.21875,-0.73633 l 1.38672,1.06445 c 0.52061,0.39653 1.29438,0.89503 1.3789,1.51758 l -0.33203,0.23828 c -1.86562,1.11475 -4.00674,1.6841 -6.17969,1.64453 -2.63306,-0.0469 -4.90366,-1.16943 -6.68945,-3.0664 -2.71362,-2.88281 -2.89912,-6.18696 -2.82617,-9.89844 z m 121.15234,6.95703 c 3.01465,6.29136 5.60059,12.70459 8.43946,19.08985 1.19531,2.68945 2.83398,6.38378 3.67187,9.11718 0.24023,0.78809 -0.12305,5.02734 -0.11133,6.38672 -1.52197,-1.81641 -2.78516,-3.76319 -4.55469,-5.35547 1.54834,2.70264 2.40186,4.81494 3.48438,7.69336 1.19971,3.67969 2.74219,7.75976 2.50781,11.56836 -0.479,-1.36523 -0.98779,-2.72119 -1.52539,-4.06445 -0.17015,0.0431 -0.35102,0.0981 -0.5293,0.16602 -0.17871,0.0681 -0.35651,0.15043 -0.52148,0.24804 -0.32962,0.19507 -0.61087,0.45319 -0.75391,0.79297 v 0.002 c 0.68848,2.39648 1.16309,4.84815 1.41797,7.32813 0.11426,1.13965 0.44433,5.22411 -0.17383,5.97851 -0.40283,-0.35889 -0.79736,-3.7417 -1.18554,-4.79492 -1.40479,-3.7998 -2.99561,-6.92822 -5.36719,-10.19922 1.11768,6.32813 2.19873,14.03321 -0.29297,20.19727 -0.52148,-5.99561 -1.19189,-6.67529 -2.65234,-11.99414 -1.17773,4.03125 -2.90674,10.32568 -5.31055,13.5293 -1.7959,2.38916 -4.58447,5.18554 -6.61914,7.51757 -0.70312,-6.0835 -2.39453,-10.44284 -6.22656,-15.19922 -0.006,-2.11083 0.26856,-4.90039 0.42383,-7.04492 0.22998,-3.5918 0.49511,-7.18163 0.79687,-10.76758 0.84961,-1.20264 3.36621,-3.96972 4.42383,-5.1621 l 6.77148,-7.77149 c 1.55713,-1.79004 3.55567,-3.97559 4.92383,-5.85937 -0.0395,-6.87598 -0.85547,-14.39907 -1.03711,-21.40235 z m -142.777342,0.23633 c 0.12671,0.97456 0.006,2.59078 -0.0293,3.61719 -0.09639,2.80957 -0.232022,5.66894 -0.451172,8.47265 -0.21987,2.8125 -0.109228,6.17042 -0.455078,8.91993 0.73184,1.14697 2.846393,3.47559 3.845703,4.66211 2.22085,2.65576 4.475925,5.28369 6.765625,7.88086 1.87412,2.15185 3.918359,4.41894 5.580079,6.71874 0.66226,5.23682 0.950491,12.10693 1.082031,17.46094 -0.69243,1.18213 -1.603414,2.30665 -2.308594,3.49024 -2.12358,3.59326 -3.354637,7.64355 -3.591797,11.8125 -1.52109,-1.56299 -6.401713,-6.89405 -7.408203,-8.48633 -1.82388,-2.88721 -3.676316,-9.22364 -4.722656,-12.58399 -1.29521,3.38379 -2.374075,8.37794 -2.578125,11.97852 -1.57456,-4.55127 -1.848578,-8.63428 -1.392578,-13.38477 0.10796,-2.09473 0.632661,-4.625 1.019531,-6.71093 -2.05972,2.33936 -4.215234,6.95947 -5.308594,9.90234 -0.40605,1.09277 -0.725496,4.46435 -1.222656,4.83789 -0.38584,-0.59912 -0.297808,-1.97217 -0.298828,-2.73828 -0.0098,-7.75342 2.902687,-14.70996 5.511719,-21.85547 -2.28442,2.74072 -3.96137,5.25684 -5.16211,8.59961 -0.73022,2.0332 -1.746388,3.98145 -2.267578,6.09961 -0.052,-6.33545 3.391892,-13.9873 5.914062,-19.7207 -1.45825,1.70361 -2.909955,3.57177 -4.296874,5.33398 -0.07222,-5.94434 -0.977058,-4.97802 1.476562,-10.77148 1.04004,-2.46826 2.099806,-4.92774 3.179688,-7.37696 2.33745,-5.2998 4.67915,-10.97514 7.11914,-16.1582 z m 95.150392,14.50977 c 0.83057,0.7251 6.43652,13.85742 7.5293,16.03711 3.40869,6.8042 6.53271,14.00928 9.97656,20.8457 -4.10889,-1.2832 -8.73486,-3.16699 -12.67383,-4.88672 1.03418,0.98438 2.27686,1.84375 3.3418,2.79883 4.3374,3.89648 9.07665,7.25097 13.58398,10.93945 1.61865,1.32422 4.08448,2.79639 5.50977,4.20117 1.21289,1.19678 2.41894,5.3335 2.8789,7.01367 0.64453,2.47266 0.0698,5.16309 -0.58203,7.55079 -1.86914,7.43115 -4.61279,7.87548 -10.00781,12.72851 -2.36426,-6.03955 -3.86767,-13.01611 -6.69922,-18.8418 -0.97266,-2.00244 -3.34424,-4.62402 -4.59961,-6.58398 -2.32178,-3.62695 -5.34375,-7.00048 -7.48828,-10.72852 -0.93604,-3.16406 -1.4541,-6.9248 -1.94922,-10.1914 -1.18213,-7.76807 -3.29932,-16.3706 -3.99219,-24.12695 0.54053,-0.56396 4.73096,-6.0542 5.17188,-6.75586 z m -47.70899,0.0996 c 0.86323,0.5625 5.0085,5.84619 5.5625,7.08398 -0.67764,6.30469 -2.4291,13.51611 -3.43164,19.96289 -1.13306,3.9126 -0.98691,10.29493 -2.52734,13.89844 -2.64375,3.80713 -5.58578,8.51953 -8.43359,12.11133 -4.53208,5.71436 -5.25904,8.63573 -7.45118,15.46484 l -2.81445,8.5 c -4.86738,-3.97559 -7.73784,-5.35352 -9.70703,-11.41211 -0.74429,-2.18555 -1.446049,-5.04785 -1.193359,-7.36523 0.18442,-1.69189 1.771197,-7.07618 2.960937,-8.14844 3.309232,-2.98096 8.149862,-6.4541 11.679692,-9.22852 3.73389,-2.93408 7.10541,-5.9082 10.69531,-8.82031 -4.01279,1.53516 -8.23823,3.36866 -12.33203,4.67383 3.77109,-9.30322 9.06113,-18.38916 12.92187,-27.70703 1.25713,-3.03369 2.90048,-5.896 4.07031,-9.01172 z m 8.07618,9.41406 c 3.73286,2.51953 7.37295,5.31885 11.0957,7.875 1.72969,1.18799 3.20606,2.40966 5.03711,3.50976 3.89063,-3.31348 8.03467,-5.72313 12.08789,-8.83593 1.16162,-0.89209 2.31446,-1.4839 3.50976,-2.48438 1.24806,7.00049 2.13135,14.35644 3.38086,21.40235 0.7793,2.95458 0.63769,9.08153 1.90625,11.6875 1.73877,3.57568 5.24463,7.28516 6.96875,11.1582 -3.12744,-2.64551 -5.93359,-4.69433 -9.24414,-7.07617 -1.17627,-0.6709 -2.83931,-1.96436 -4.07422,-2.56055 -4.22314,-2.03467 -9.54053,-4.20654 -14.10937,-5.20703 -1.43701,-0.31494 -4.61108,0.82763 -6.00781,1.35937 -2.79316,1.06348 -7.7461,2.78467 -10.26563,4.35938 -4.29463,2.68213 -8.79341,6.19237 -12.82422,9.26562 1.87339,-3.25928 5.67681,-7.8711 7.22266,-11.06445 0.97104,-2.00537 1.60371,-8.93506 2.02148,-11.44141 1.20952,-7.25391 2.44752,-14.6333 3.29493,-21.94726 z m -71.367191,12.19336 c 0.06489,0.0513 0.128619,0.10107 0.193359,0.15234 -0.85562,3.92871 -1.696625,7.22851 -1.578125,11.28906 0.19219,6.5874 2.450929,10.61328 6.636719,15.40625 1.7127,1.96143 3.195999,4.08301 5.162109,5.9668 1.60195,1.53516 3.242971,2.9585 4.837891,4.49219 -0.35449,-2.30566 -0.359085,-3.96826 -0.359375,-6.27539 3.7998,5.00537 8.073242,9.45654 12.289062,14.07812 1.07373,1.17773 1.81543,4.77588 2.9375,6.54688 2.90625,4.58936 7.294581,7.07031 11.095701,10.60937 l 0.12891,0.12305 c -1.18945,8.86084 -1.32388,19.08203 1.94726,27.52539 -3.88521,-4.6333 -8.154052,-15.1333 -9.216792,-21.08789 -0.835842,6.57275 -0.448486,7.66211 1.396484,13.88477 -6.84126,-10.49414 -6.799261,-16.25342 -9.119141,-28.02344 -1.25845,4.54541 -1.384032,6.78808 -1.326172,11.32031 0.4938,4.34473 1.876705,8.82568 3.390625,12.91992 -1.76001,-1.76807 -3.203948,-4.17041 -4.542968,-6.26953 -3.91978,-6.14502 -6.257767,-12.19043 -7.310547,-19.40625 -0.36475,-2.50049 -0.51695,-4.91016 -0.84961,-7.35937 -3.0479,6.41016 -4.833692,13.26611 -4.101562,20.40429 0.21914,2.13721 0.768766,4.83788 1.166015,6.98242 -11.81821,-12.23584 -13.351562,-25.53808 -14.476562,-41.64257 -1.04106,2.25439 -1.402784,3.63133 -2.058594,6.01172 -0.54668,-5.688 -0.964307,-12.36768 0.539063,-17.92383 -3.27407,4.88818 -4.904636,10.26074 -5.416016,16.07031 -0.67778,-1.87939 -0.838812,-4.63916 -1.138672,-6.62695 -1.68516,-11.17676 1.863183,-18.18994 6.283203,-28.14649 1.2,-0.2417 2.329205,-0.63916 3.490235,-1.02148 z m 174.521481,0.0293 c 1.29346,0.4248 2.32666,0.65821 3.64649,0.95704 1.07959,2.11816 1.94146,4.48534 2.86718,6.58007 3.28418,7.43994 4.78222,13.87696 3.44922,21.94532 -0.38232,2.31445 -0.36621,3.76855 -1.14257,6.22656 -0.69873,-6.18164 -1.97021,-10.60156 -5.35547,-15.97461 1.14404,4.40771 1.26172,12.98485 0.45312,17.52734 -0.52148,-1.97021 -1.2998,-3.94481 -2.04687,-5.84179 -0.35303,13.19678 -2.76661,28.07227 -11.57617,38.42578 -0.95215,1.11914 -1.92968,2.2036 -2.94336,3.26562 0.68115,-3.58887 1.54491,-7.19628 1.39257,-10.8789 -0.20068,-4.86768 -1.65137,-12.15674 -4.26171,-16.34766 -0.79981,10.23193 -2.43165,17.26661 -7.86329,26.2168 -1.5542,2.55908 -2.67382,4.44433 -4.81836,6.65625 1.36377,-4.15283 2.97901,-8.47999 3.33204,-12.82617 0.22266,-3.72949 -0.12256,-7.61915 -1.34571,-11.16407 -0.31787,1.38428 -0.63427,3.6206 -0.90234,5.11914 -1.62012,9.04541 -3.18994,15.52979 -8.41797,23.3125 0.2666,-1.28467 0.99805,-3.33642 1.35547,-4.7207 0.92725,-3.58447 0.62549,-6.14648 0.28125,-9.72656 -0.8584,5.84033 -5.49756,16.50391 -9.19336,20.98047 0.63574,-1.67578 1.47265,-3.99707 1.7832,-5.75196 1.17187,-6.61816 1.23975,-14.81689 0.0606,-21.39258 2.70996,-2.84619 6.33789,-5.03223 9.10937,-8.06445 3,-3.27979 3.16993,-5.65527 5.05079,-9.32617 0.41016,-0.79834 3.33691,-3.55273 4.11914,-4.44336 2.84326,-3.23437 5.79541,-6.26367 8.26367,-9.82617 -0.0176,2.14014 -0.084,4.27636 -0.20117,6.41211 1.4165,-1.61572 3.55273,-3.43457 5.11718,-5.04297 1.85449,-1.65088 3.23829,-3.85937 4.87891,-5.65234 7.81348,-8.53271 7.16992,-15.79298 4.9082,-26.64454 z m -87.09765,8.22071 c -2.97095,0.43701 -8.07878,2.43535 -10.60547,4.0332 -1.34765,0.85108 -4.81641,4.28126 -5.81836,5.64648 2.88325,-1.4868 13.46728,-6.32861 16.41601,-6.57031 3.38525,0.85547 13.28663,4.8833 16.22071,6.6543 -3.61523,-4.38134 -6.92384,-7.02198 -12.32031,-8.62891 -1.40126,-0.4173 -2.32741,-1.09468 -3.89063,-1.13476 z m -0.16407,15.63086 c 1.22789,0.0621 2.39283,0.65866 3.55665,1.01758 6.91698,2.13427 12.32617,6.10791 18.0332,10.36914 2.42578,1.81201 5.2876,3.34423 7.60351,5.37304 0.49219,0.43213 0.96386,0.9214 1.21289,1.55274 1.50879,4.10889 2.86914,8.29101 4.36914,12.41015 0.5303,1.45166 1.10011,2.8745 1.2129,4.41993 -1.69189,2.84911 -6.37549,9.22461 -8.96094,11.07031 -1.46191,-0.0996 -6.10059,-1.11377 -7.80274,-1.44922 l -18.79882,-3.85352 c -0.92139,-0.0688 -4.47745,0.74903 -5.61914,0.98633 -3.74825,0.76172 -7.49107,1.55517 -11.22657,2.37695 -3.30103,0.69287 -7.16372,1.28321 -10.36719,2.0918 -3.29648,-2.61475 -7.01479,-7.76514 -9.23828,-11.40234 0.14399,-1.08398 0.46465,-2.00098 0.87305,-3.02344 1.8457,-4.61719 3.27237,-9.66406 5.14063,-14.22266 0.47607,-1.16162 6.52304,-4.87353 7.89648,-5.84179 3.33398,-2.35107 7.0581,-5.45313 10.61328,-7.35157 3.50933,-1.84424 7.18252,-3.35498 10.97266,-4.51367 0.17816,-0.0152 0.35388,-0.0186 0.52929,-0.01 z m -0.30273,3.36328 c -0.1904,0.007 -0.37566,0.0222 -0.55469,0.0469 -5.98388,0.98291 -15.85947,7.2168 -20.29297,11.44727 1.22915,-0.71191 4.26207,-2.51709 5.37696,-3.06641 2.98609,-1.47363 13.31347,-6.15039 16.31054,-5.98633 4.48535,1.08691 10.12208,3.44092 14.32618,5.49024 1.99365,0.97119 4.13427,2.41162 6.08984,3.35351 -4.18909,-3.68674 -15.35357,-11.51595 -21.25586,-11.28515 z m 12.58203,11.41992 c -1.94238,1.43409 -3.62793,2.83545 -3.9707,5.38281 -0.49072,3.63721 0.37891,7.06153 1.76172,10.4043 1.31983,3.18897 3.37305,4.2461 6.15625,5.91016 -1.02099,-2.18262 -2.23975,-4.67871 -2.93555,-6.97266 2.63525,1.59815 3.61036,2.18799 6.47266,3.32031 0.97998,0.28418 2.56494,0.69532 3.46875,1.0586 -0.36329,1.69043 -0.73975,2.94092 -1.35938,4.5625 2.3291,-1.77246 3.78907,-2.88624 4.70899,-5.82032 -0.60938,-2.72314 -1.646,-5.37549 -2.44727,-8.01953 -0.74267,-2.44629 -2.27637,-4.06201 -4.41797,-5.33789 -2.40234,-1.55859 -5.05273,-2.91064 -7.4375,-4.48828 z m -24.39648,0.11914 c -3.1062,1.81494 -7.4395,4.07178 -10.11328,6.34375 -1.45372,1.23633 -2.9127,7.48193 -3.63868,9.32031 -1.37021,3.46728 1.73902,5.88037 4.16993,7.94141 -0.76333,-1.87939 -0.99776,-2.78174 -1.26758,-4.80469 1.39131,-0.27246 2.35581,-0.49512 3.70508,-0.94336 2.30801,-0.96973 4.14008,-1.91894 6.05859,-3.50976 -0.81929,2.6792 -1.65488,4.83838 -3.0957,7.27734 4.46851,-2.48145 6.00688,-3.8291 7.46484,-9.05273 1.23838,-4.43848 1.89073,-9.98243 -3.01563,-12.50196 -0.0895,-0.0234 -0.17807,-0.0469 -0.26757,-0.0703 z m -24.48633,33.41406 c 0.74604,0.65771 1.4623,1.75342 2.51172,2.63672 1.68545,1.41943 4.41885,3.04688 6.65039,3.22266 2.86509,0.22559 6.75821,-0.90381 9.65625,-1.41211 3.99419,-0.7002 7.95732,-1.55517 11.91211,-2.37695 1.65981,-0.3457 5.00731,-1.21583 6.53515,-1.00782 3.37939,0.36328 6.30567,1.36817 9.66602,1.93946 5.06104,0.85986 12.01318,2.72997 17.00976,2.95117 2.9751,0.13184 7.45557,-3.67481 9.29102,-5.91602 0.21533,6.26807 -0.13282,9.95019 -3.26172,15.63672 -0.39697,-2.31885 -0.34179,-3.17431 -1.30859,-5.29101 -0.18164,1.08691 -0.20557,2.35547 -0.44141,3.43359 -1.21289,5.54883 -2.69921,9.94922 -7.15234,13.59961 2.96484,-5.16064 4.32861,-11.08008 1.59375,-16.66992 -0.62695,3.97705 -1.25733,8.53906 -3.5586,12.01367 -0.23584,-2.00684 -0.61328,-2.82861 -1.55664,-4.58203 -1.97314,5.51953 -3.72705,6.25439 -7.12109,10.35742 0.22412,-0.52295 0.43359,-1.05029 0.63281,-1.58203 1.38721,-3.71777 0.86964,-7.03418 -0.74609,-10.54688 -0.41895,4.07666 -1.00146,6.92579 -2.85156,10.64649 -1.16162,2.27783 -2.00391,3.22461 -3.5625,5.28125 0.30469,-4.81934 1.10642,-7.89161 -0.80078,-12.65821 0.0454,7.74609 -2.22364,12.50977 -6.41602,18.70899 -4.37329,-5.67187 -6.20893,-11.57373 -6.43555,-18.64453 -1.94414,5.06543 -1.07182,7.85303 -0.77343,12.90234 -0.96621,-1.55566 -2.05885,-3.02686 -3,-4.63086 -2.22584,-3.79102 -2.89282,-7.28076 -3.41211,-11.5332 -0.21665,0.52148 -0.42207,1.04736 -0.61719,1.57617 -1.32363,3.67676 -1.06514,6.95606 0.58398,10.42188 -3.02783,-2.66455 -5.98716,-6.65674 -7.34375,-10.45508 -0.5543,1.61133 -1.08813,3.229 -1.60156,4.85351 -2.00537,-5.06543 -2.87017,-7.01953 -3.41992,-12.52734 -2.22847,6.19629 -1.65966,11.81591 1.95117,17.33984 -4.51187,-3.63721 -6.0358,-7.81005 -7.37305,-13.30468 -0.27319,-1.12354 -0.22837,-2.7544 -0.45117,-3.46485 l -0.2207,0.0762 c -0.64849,1.06055 -0.96822,3.33984 -1.21094,4.64063 -2.9064,-5.62207 -3.46889,-9.41505 -3.35742,-15.63477 z m 36.53906,6.52539 c -2.41699,0.26807 -5.64018,0.97999 -8.08398,1.45313 -2.63951,0.51123 -5.94726,1.06006 -8.51953,1.7207 5.40878,2.50928 6.90898,2.7876 12.89257,1.51172 0.79937,-0.17139 3.31787,-0.69238 4.06055,-0.71875 7.00488,1.29785 10.04493,2.60889 16.66602,-0.85547 -4.13819,-0.65332 -8.42041,-1.80277 -12.59961,-2.43554 -1.07373,-0.16407 -3.41553,-0.70216 -4.41602,-0.67579 z" />
    </g>
  </svg>
</svg>
