<?xml version="1.0" encoding="UTF-8" standalone="no"?>
<svg
   id="svg"
   version="1.1"
   viewBox="0 0 299.41406249999994 300"
   width="299.41406249999994"
   height="300"
   xmlns="http://www.w3.org/2000/svg"
   xmlns:svg="http://www.w3.org/2000/svg">
  <defs
     id="defs110">
    <clipPath
       clipPathUnits="userSpaceOnUse"
       id="clipPath226">
      <g
         id="use226" />
    </clipPath>
    <linearGradient
       x1="290.625"
       y1="56.111721"
       x2="281.38623"
       y2="52.245121"
       gradientUnits="userSpaceOnUse"
       id="color-1-1"
       gradientTransform="matrix(-0.99477352,0,0,1,296.9867,-0.01630684)">
      <stop
         offset="0"
         stop-color="#f9e8e7"
         id="stop1-1" />
      <stop
         offset="1"
         stop-color="#ffffff"
         id="stop2-5" />
    </linearGradient>
  </defs>
  <rect
     style="fill:#ffffff;fill-opacity:1;stroke-width:1.04072"
     id="rect247"
     width="298.0889"
     height="292.83157"
     x="0.52573037"
     y="3.1543791"
     rx="28.819891" />
  <svg
     version="1.1"
     id="svg110">
    <defs
       id="defs6">
      <clipPath
         id="clip-1">
        <rect
           x="0"
           y="0"
           transform="scale(0.14648,0.14648)"
           width="2044"
           height="2048"
           fill="none"
           id="rect1" />
      </clipPath>
      <linearGradient
         x1="290.625"
         y1="56.11172"
         x2="281.38623"
         y2="52.24512"
         gradientUnits="userSpaceOnUse"
         id="color-1">
        <stop
           offset="0"
           stop-color="#f9e8e7"
           id="stop1" />
        <stop
           offset="1"
           stop-color="#ffffff"
           id="stop2" />
      </linearGradient>
      <linearGradient
         x1="64.67227"
         y1="94.14697"
         x2="66.19966"
         y2="91.18301"
         gradientUnits="userSpaceOnUse"
         id="color-2">
        <stop
           offset="0"
           stop-color="#dfaba8"
           id="stop3" />
        <stop
           offset="1"
           stop-color="#f3cdcb"
           id="stop4" />
      </linearGradient>
      <linearGradient
         x1="234.90088"
         y1="92.5519"
         x2="233.26318"
         y2="90.70005"
         gradientUnits="userSpaceOnUse"
         id="color-3">
        <stop
           offset="0"
           stop-color="#f0c9c4"
           id="stop5" />
        <stop
           offset="1"
           stop-color="#f5ebe9"
           id="stop6" />
      </linearGradient>
    </defs>
    <g
       clip-path="url(#clip-1)"
       fill="none"
       fill-rule="nonzero"
       stroke="none"
       stroke-width="1"
       stroke-linecap="butt"
       stroke-linejoin="miter"
       stroke-miterlimit="10"
       stroke-dasharray="none"
       stroke-dashoffset="0"
       font-family="none"
       font-weight="none"
       font-size="none"
       text-anchor="none"
       style="display:inline;mix-blend-mode:normal"
       id="g110"
       transform="matrix(1.0441989,0,0,1.0372439,-8.8067027,-8.842445)">
      <path
         id="path7"
         style="mix-blend-mode:normal;fill:#682612;fill-opacity:1;stroke-width:0.925034"
         d="m 63.548965,15.677387 c -4.462749,1.501733 -9.287189,3.51691 -13.690419,5.313103 -2.982499,1.216644 -9.183675,3.550259 -11.633617,5.2478 -0.854167,0.591809 -5.11637,6.36357 -6.127218,7.649489 -2.217002,2.8204 -4.863852,6.090612 -7.001764,9.002707 -2.773464,3.540089 -3.395366,3.977477 -3.523376,8.592751 -0.309043,1.056955 -0.931192,9.035034 -1.077887,10.573601 -0.139241,1.460469 -0.787501,7.568183 -0.75578,8.58731 -0.123827,1.908878 -0.583976,4.859839 0.305911,6.435946 0.59109,1.150285 1.658237,2.672606 2.369911,3.818397 l 4.325943,7.081718 5.04933,8.095722 c 1.141633,1.85541 3.137709,5.721829 4.912573,6.871299 1.016662,0.65847 3.598549,1.6707 4.797404,2.19672 3.421524,1.46699 6.81791,2.9891 10.190437,4.56756 1.086435,0.49628 3.212645,1.34973 4.110004,1.8575 -2.785315,1.39938 -5.390055,2.06655 -7.903301,4.02155 -1.827776,1.42197 -2.657374,2.77755 -4.108205,4.47869 -1.153103,1.36074 -2.449045,2.5892 -3.867076,3.66601 -6.109676,4.56807 -12.864221,4.93989 -17.114823,12.14087 -6.14183,10.40491 0.129493,19.2752 -0.777374,30.22429 -0.257153,1.26115 -0.837326,3.5862 -0.99691,4.73988 -0.685835,2.01895 -1.460146,6.30988 -1.491766,8.32066 2.183769,0.25305 4.805857,0.81946 6.947779,0.85075 5.452913,0.0776 11.539729,-3.50413 15.765216,-6.76246 4.573547,-3.52635 7.900379,-8.04675 10.890433,-12.93901 0.871304,-1.42714 1.648767,-3.07467 2.503072,-4.46235 1.928321,0.585 3.332401,0.81673 5.353444,0.95958 -2.228334,2.81619 -3.115367,5.74302 -4.320544,9.07345 2.794364,-1.64889 5.732547,-3.03748 8.776048,-4.15035 -3.849759,5.11675 -6.969597,9.78045 -8.813837,16.04815 -0.948779,3.22432 -1.578275,6.6636 -2.479679,9.86071 2.21444,-1.44073 4.768527,-3.26468 6.989167,-4.55849 -0.877246,3.45696 -2.758193,6.43414 -3.525175,10.24346 -1.969891,9.78181 0.18462,19.99306 2.742403,29.47148 0.844853,3.11821 2.02171,6.36566 2.817981,9.3655 0.958895,-2.96718 1.95706,-5.92349 2.99073,-8.86485 0.7246,3.17127 1.386678,6.44955 2.395104,9.5324 3.669583,11.21982 10.670756,19.1813 19.238205,26.94825 -0.01579,-2.91686 0.281086,-8.68798 0.511052,-11.71639 l 0.127762,0.15418 c 1.763936,2.1618 3.259343,5.3834 5.286863,7.68396 5.814647,6.59829 15.424844,12.72359 22.934334,17.27438 0.33781,-0.77274 -0.0173,-1.20991 0.57043,-1.90648 -0.33592,-2.83114 -0.66113,-5.06504 -0.58663,-7.9234 6.31873,10.11921 10.78868,14.60606 21.14206,20.69009 -1.13381,-2.74271 -2.66306,-6.24049 -3.23907,-9.12061 3.07022,2.974 5.83392,6.34253 9.17014,9.07707 0.54726,0.44896 1.63658,1.4335 2.19357,1.77225 0.96483,0.7986 1.75885,1.41398 2.77659,2.14047 1.07947,0.7684 1.97913,1.19672 3.18867,1.89197 l 1.0185,-0.44079 1.13367,-0.6367 c 3.38482,-2.51687 5.89914,-4.46462 8.956,-7.36651 1.37256,-1.30198 5.00434,-5.35165 6.14881,-6.12032 -0.46697,2.14819 -1.32307,4.21112 -2.11258,6.26 0.40082,0.63126 0.45121,0.86662 1.12467,1.14279 6.39308,-3.70049 11.29802,-7.99777 15.60325,-14.04916 1.14313,-1.60808 2.082,-3.48054 3.29125,-5.01924 l 0.13316,-0.1687 c 0.0297,3.25698 -0.47461,7.34837 -1.27223,10.48834 2.70056,-1.51557 5.67781,-3.48961 8.265,-5.22421 6.84791,-4.59296 13.59324,-8.91111 18.17651,-15.98829 0.61542,-0.82308 1.17686,-1.68699 1.67892,-2.58489 0.37249,-0.57412 0.80616,-1.29427 1.23804,-1.80853 0.26587,1.91555 0.29152,4.0084 0.40488,5.96069 0.0863,1.47612 0.27352,3.19303 0.30591,4.6365 0.70989,-0.0816 1.5327,-1.68291 2.719,-2.16588 l 0.21954,0.19409 c 0.71124,-0.46392 4.29355,-4.28776 4.96296,-5.02105 5.37954,-5.9031 9.5939,-12.73901 11.80996,-20.47604 0.75038,-2.61619 1.19216,-5.34439 1.97224,-7.99051 0.73553,1.65841 2.59753,7.19237 3.0969,8.93378 3.41855,-11.50961 7.76834,-25.83313 5.67374,-37.99168 -0.63432,-3.676 -2.44998,-7.78282 -3.81849,-11.31189 1.92859,1.06797 5.37234,3.36355 7.09714,4.69273 -1.00141,-3.53178 -1.71535,-7.39055 -2.80178,-10.88561 -1.67892,-5.4038 -5.08714,-10.58992 -8.55832,-14.98697 3.24041,1.04756 5.79386,2.32324 8.74546,4.00886 -1.3631,-4.00388 -2.0613,-5.39109 -4.1208,-9.0807 2.38071,-0.0762 2.7172,-0.1306 5.04933,-0.85982 0.93258,1.23939 1.8683,3.09143 2.7442,4.56756 5.53879,9.3274 15.27801,18.95411 26.61606,19.50375 1.60198,0.0775 5.13931,-0.60359 6.85061,-0.84169 -0.42513,-4.12359 -1.37435,-7.90525 -2.31233,-11.92681 -0.48046,-2.06247 -0.44132,-4.28504 -0.30231,-6.38696 0.25643,-2.12235 0.85385,-4.53356 1.0293,-6.52666 l 0.0594,-0.2739 c 0.3428,-1.56862 0.58258,-3.63746 0.75399,-5.2333 0.53849,-1.45679 0.10436,-6.56789 -0.51646,-8.08483 -0.3077,-1.44577 -1.18045,-3.34622 -1.89845,-4.63105 -3.11219,-6.50252 -12.3804,-8.61411 -17.89219,-12.89729 -2.99073,-2.32383 -4.75781,-5.85252 -7.83492,-8.00685 -2.27949,-1.59529 -5.02368,-2.40486 -7.46243,-3.72043 4.07986,-1.62931 8.0549,-3.49102 12.07808,-5.26413 2.50487,-1.10388 5.19194,-2.15558 7.59019,-3.49007 0.46292,-0.25835 0.75579,-0.68972 0.99872,-1.15187 2.55345,-3.944009 5.1447,-8.225279 7.58479,-12.249701 0.43592,-0.387874 3.02537,-4.878067 3.4316,-5.60878 1.4009,-2.197979 2.76625,-4.439176 4.1442,-6.653622 0.73824,-0.803499 0.58258,-2.277478 0.52185,-3.277834 -0.31986,-5.294423 -0.92764,-10.561216 -1.4054,-15.841355 l -0.61002,-6.978323 c -0.39678,-4.603431 -0.65185,-4.636091 -3.66553,-8.233585 -0.5115,-0.693294 -1.07204,-1.400105 -1.61593,-2.075176 -3.71682,-4.614318 -7.09128,-9.532522 -10.97681,-14.00018 -0.43457,-0.500114 -0.94017,-0.847123 -1.50437,-1.179077 -1.07159,-0.702915 -6.06918,-2.661739 -7.55779,-3.243369 -5.46322,-2.13294 -11.20174,-4.703995 -16.72434,-6.535715 3.28359,4.771536 6.36204,10.003969 9.43645,14.932558 1.22545,1.964798 2.61284,3.949595 3.54137,6.067712 0.87455,3.21861 1.29248,6.680157 1.90385,9.962295 0.14441,1.346873 1.17146,5.10101 0.82056,6.298085 -0.70043,2.392116 -2.51927,4.870402 -3.7717,7.163347 -0.78411,1.437881 -3.86707,8.048651 -5.09252,8.667124 -2.36046,1.191094 -5.80107,2.174308 -8.34778,3.205276 -2.60744,0.896689 -7.65857,3.125734 -10.11485,3.609789 -0.55874,-1.228235 -1.18046,-2.691011 -1.80128,-3.869186 -3.89091,-0.01089 -7.90915,0.509953 -11.88914,0.589538 -4.1271,-4.305759 -8.47329,-8.502915 -12.62873,-12.808405 -1.31182,-1.359253 -4.93055,-5.237916 -6.12361,-6.082224 -1.29023,-0.912469 -6.33956,-2.718861 -8.14803,-3.448347 l -15.33697,-6.294458 c -2.21335,-0.927431 -4.97237,-1.936406 -7.03595,-2.994856 -0.24159,-0.634252 -0.50835,-1.382241 -0.77017,-1.997175 -1.45083,-1.120491 -5.35929,-2.5323 -7.2501,-3.354021 -1.51291,-0.657657 -4.06726,-1.866161 -5.54779,-2.388991 -1.46702,0.372494 -5.09998,2.128142 -6.68145,2.795319 -1.75543,0.740641 -4.5686,1.795729 -6.13441,2.646574 -0.49018,0.869209 -0.70949,1.547086 -1.0473,2.485133 -7.29854,2.909783 -14.57153,5.881871 -21.81866,8.919264 -2.15951,0.889074 -7.18253,2.655279 -8.89302,3.854676 -0.59977,0.420658 -4.37816,4.309934 -5.03313,4.972077 l -9.620002,9.721037 c -0.953367,0.966754 -2.98299,3.158384 -3.922859,3.92542 -3.964741,0.03061 -7.970515,-0.600378 -11.773976,-0.549632 -0.500026,1.01818 -1.394143,2.999523 -1.981225,3.85649 -1.614533,-0.329911 -17.569378,-6.283212 -18.863914,-7.09623 -1.343127,-2.133906 -8.130986,-14.154049 -8.28659,-15.801448 -0.193268,-2.044791 1.050583,-7.025623 1.437782,-9.207685 0.325119,-1.831466 0.521762,-3.71863 0.92853,-5.530779 0.165729,-0.738328 0.401867,-1.427721 0.743184,-2.102385 1.747739,-3.455738 4.086477,-6.765951 6.127218,-10.058435 2.046546,-3.301706 4.058366,-7.005371 6.373747,-10.103783 z M 50.038493,26.735316 c -1.378755,2.38777 -3.141485,4.886372 -4.307947,7.333859 -0.759426,1.593662 -1.050892,4.33429 -1.412589,6.076783 -0.778046,3.748509 -1.193638,8.743855 -2.13418,12.345844 l -7.365258,2.318247 c 0,0 -3.012412,-0.226654 -3.147285,-0.121536 h -0.0018 v 0.0018 l -0.0018,0.0018 C 30.321265,52.832236 28.985648,50.963927 27.660201,49.088805 28.793467,46.96415 40.519355,31.633071 41.867069,30.584549 44.02577,28.905314 47.514191,27.88601 50.038493,26.735316 Z m 203.954487,0.172327 c 1.69514,0.534001 6.94104,2.74317 8.16243,3.876443 1.58174,1.468223 4.87568,6.151163 6.28737,7.990515 l 4.92697,6.403295 c 0.83001,1.083888 2.17287,2.746802 2.83418,3.863745 -1.40629,1.792153 -2.7451,3.762849 -4.15139,5.606966 0,0 -2.93173,0.314 -3.1023,0.206791 h -0.002 l -0.002,-0.0018 -0.002,-0.0018 v -0.0018 l -0.002,-0.0018 v -0.0018 -0.0018 l 0.002,-0.0018 v -0.0018 l 0.002,-0.0018 v -0.0018 l 0.002,-0.0018 0.002,-0.0018 c 0.005,-0.0039 0.013,-0.008 0.0216,-0.0127 l -7.43724,-2.376293 c -0.46967,-3.431387 -1.14491,-7.071191 -1.72929,-10.481089 -0.26587,-1.552302 -0.95192,-6.393281 -1.50797,-7.591442 -0.94338,-2.034579 -3.08159,-5.474504 -4.30435,-7.464465 z m -102.4676,12.006632 c 1.22815,-0.05592 7.55825,3.112034 9.21692,3.840164 -0.0999,5.325304 -0.001,11.01136 0,16.35652 l -0.018,41.443651 c -2.79504,-0.0386 -5.59053,-0.062 -8.38556,-0.0707 l -9.40227,0.0617 0.009,-57.713101 c 2.84335,-1.28891 5.80107,-2.519327 8.5799,-3.918164 z m 16.47421,8.864846 c 0.25913,0.06149 0.79762,0.201667 1.0419,0.30656 4.19458,1.804534 8.32438,3.413429 12.54055,5.191568 3.57646,1.508494 7.95053,3.063789 11.3313,4.865053 0.59519,0.317131 3.60076,3.450523 4.34034,4.204771 l 6.38995,6.470412 c 0.76118,0.781998 5.20679,5.019733 5.501,5.681337 -0.16195,0.415216 -0.0306,0.224843 -0.54884,0.482516 -0.79087,0.34229 -1.63483,0.672614 -2.4365,1.001308 -0.91232,-0.698466 -2.91065,-2.907556 -3.83108,-3.878256 l -7.45703,-7.917957 c -3.123,-3.339553 -3.92781,-4.287572 -8.36397,-5.824641 -2.13643,-0.740233 -4.63995,-2.081117 -6.82361,-2.938623 -2.7505,-1.080628 -5.72009,-2.309361 -8.2992,-3.747651 -0.80167,-0.47943 -2.81796,-3.06406 -3.38481,-3.896397 z m -30.01887,1.23531 c -0.60451,0.832337 -2.75479,3.416967 -3.60975,3.896397 -2.75053,1.43829 -5.91831,2.667023 -8.85163,3.747651 -2.32881,0.857506 -4.99863,2.198391 -7.27708,2.938623 -4.73103,1.537063 -5.58942,2.485088 -8.92,5.824641 l -7.95189,7.917957 c -0.98161,0.970701 -3.113643,3.181603 -4.086616,3.88007 -0.85494,-0.328694 -1.755003,-0.660832 -2.598444,-1.003123 -0.552725,-0.257672 -0.412108,-0.0673 -0.58483,-0.482514 0.313769,-0.661604 5.054517,-4.89934 5.866294,-5.681338 l 6.812816,-6.470413 c 0.78875,-0.754247 3.99711,-3.887639 4.63185,-4.20477 3.6055,-1.801264 8.2693,-3.354745 12.08349,-4.86324 4.49643,-1.778138 8.90031,-3.388847 13.37371,-5.19338 0.26052,-0.104894 0.83577,-0.245068 1.11208,-0.306561 z m 27.56798,0.07256 c 0.7342,0.515484 4.35653,5.169348 5.1825,6.158411 5.71154,6.776522 11.38349,13.587277 17.01405,20.432499 1.48592,1.806168 3.90171,4.3839 5.12851,6.156596 -0.884,0.813158 -1.93265,1.441468 -2.85038,2.194897 -1.36985,1.12389 -2.72485,2.251671 -4.1028,3.366719 -1.52641,1.238572 -3.04291,2.490031 -4.54908,3.753088 -1.27538,1.08035 -2.73789,2.41307 -4.0956,3.31956 -3.32948,-4.572281 -8.33024,-9.432118 -11.7326,-13.956644 -0.18084,-3.237112 -0.031,-7.810663 -0.0324,-11.206674 z m -26.16619,1.608987 0.0342,20.218452 c -0.001,3.396011 0.13981,7.969562 -0.0288,11.206674 -3.17191,4.524526 -7.83325,9.382547 -10.93721,13.954827 -1.26576,-0.90649 -2.6295,-2.2392 -3.8185,-3.31955 -1.40415,-1.26307 -2.81834,-2.51271 -4.24136,-3.751281 -1.28461,-1.115048 -2.54682,-2.242829 -3.82389,-3.366719 -0.85558,-0.75343 -1.83371,-1.381739 -2.65783,-2.194897 1.1437,-1.772696 3.39596,-4.350428 4.78121,-6.156596 5.24918,-6.845222 10.5377,-13.655979 15.86239,-20.432499 0.77002,-0.989063 4.14534,-5.642927 4.82979,-6.158411 z m -113.840294,2.06429 c 0.922337,1.306743 2.517794,3.461088 3.264251,4.828775 -1.055249,3.978709 -2.946285,8.833052 -4.248564,12.839243 -0.264489,0.819417 -0.521633,1.644038 -0.822361,2.450666 -0.02819,-1.393942 1.403911,-19.395596 1.806674,-20.118684 z m 251.203354,0.01451 c 0.40488,0.723087 1.84401,18.724741 1.81567,20.118683 -0.30231,-0.806629 -0.56188,-1.631249 -0.82776,-2.450667 -1.30912,-4.00619 -3.20936,-8.860533 -4.27015,-12.839242 0.75037,-1.367687 2.35506,-3.522032 3.28224,-4.828774 z m -15.54928,2.359968 c 1.92049,0.379032 7.45882,2.089328 9.39147,2.875134 -1.90835,5.607736 -4.06682,11.201725 -6.17761,16.739267 -0.77603,2.037037 -2.86296,8.018126 -3.88327,9.55778 -2.73025,-3.957478 -5.66564,-8.347803 -8.51872,-12.18803 2.98178,-5.695676 6.01956,-11.383074 9.18813,-16.984151 z m -218.893747,0.0073 0.124163,0.01814 c 0.377618,0.459156 2.983624,5.230116 3.402811,6.042317 1.841679,3.569882 4.270831,7.366555 6.003055,10.900114 -1.485243,2.142069 -3.033202,4.250074 -4.532882,6.386971 -1.297107,1.84834 -2.746317,4.154752 -4.221572,5.839152 -1.086168,-1.903306 -2.301929,-5.759743 -3.149085,-7.968747 -1.366879,-3.512876 -2.702131,-7.039184 -4.003835,-10.577229 -0.751328,-1.991463 -2.289299,-5.921921 -2.64883,-7.887119 2.603795,-0.902262 6.38701,-1.994317 9.026175,-2.753598 z m 207.560637,18.64026 c 0.3401,0.222436 8.42561,11.808547 8.86423,12.812034 -7.48087,3.285676 -15.93302,7.149971 -23.49217,10.100151 -0.84084,-3.22504 -2.11187,-6.201098 -2.90975,-9.40903 -0.75578,-1.935004 -1.5966,-4.453512 -1.95424,-6.464971 2.94079,-1.222254 6.58069,-2.394207 9.59301,-3.506394 3.06092,-1.130278 6.82317,-2.68789 9.89892,-3.53179 z M 54.067522,73.981843 c 0.03398,-0.0017 0.07229,-0.0019 0.113367,0 1.588169,0.07211 8.258102,2.763685 9.281701,3.165368 3.239459,1.271635 6.92898,2.268638 10.066272,3.696861 -0.252509,1.298439 -4.375476,13.922359 -5.076324,15.904839 -5.898054,-2.30164 -11.801234,-5.21414 -17.690655,-7.607764 -1.802808,-0.732749 -4.113195,-1.77869 -5.781719,-2.742716 2.865214,-4.078159 5.770605,-8.497436 8.884017,-12.349471 0.03277,-0.04054 0.101403,-0.06196 0.203341,-0.06712 z M 26.08026,75.801249 c 0.865076,0.916277 1.924042,1.974326 2.657827,2.976716 1.173215,0.740233 10.005769,11.427115 11.343901,12.966216 -0.488149,1.58251 -0.995647,2.94747 -1.57814,4.49501 -0.399352,-0.55263 -0.868524,-1.18701 -1.216447,-1.77406 -3.203969,-5.405973 -6.73018,-10.707607 -9.850335,-16.156982 -0.599244,-0.950288 -0.877906,-1.483956 -1.356806,-2.5069 z m 251.24654,0.397259 c 0.0553,0.556981 -11.40103,19.465343 -11.99351,19.850213 -0.39678,-0.23291 -0.3266,-0.34633 -0.55064,-0.8961 -0.41704,-1.20932 -0.77018,-2.23657 -1.09409,-3.48099 l 8.79585,-10.074764 c 1.53045,-1.738007 3.23231,-3.762124 4.84239,-5.398359 z m -66.62743,0.705632 c 0.21999,0.173184 0.3446,0.446594 0.42828,0.716516 1.90294,6.263481 4.03937,12.471187 5.91128,18.741885 1.25783,4.213379 2.86342,8.528539 3.93366,12.772119 -0.91909,-0.18897 -1.49537,-0.36469 -2.3915,-0.65121 l -0.95373,-0.3773 c -2.61554,-8.07034 -5.55139,-16.148469 -8.21821,-24.212804 -0.63026,-1.902488 -1.27493,-3.812642 -1.77428,-5.753896 1.14851,-0.52936 1.87144,-0.834239 3.0645,-1.23531 z M 80.093353,77.419306 c 1.599424,0.01034 5.149075,0.232232 6.782228,0.451677 -1.062406,3.775583 -2.432169,7.719378 -3.656537,11.45156 -0.843636,2.571428 -1.90659,6.523198 -3.066308,8.930148 -1.469045,-0.94703 -3.207974,-1.63402 -4.829796,-2.29467 l -1.038298,-0.27209 c 2.008219,-6.086619 3.834371,-12.203949 5.808711,-18.266625 z m 143.688217,0.04716 c 0.37114,1.762628 1.04099,3.568796 1.52955,5.311289 1.04054,3.717089 2.43649,7.337758 3.44061,11.065186 -0.0135,0.57168 0.0643,1.6391 -0.21234,2.05704 l -0.16735,0.0961 c -1.26459,0.46541 -3.61065,1.68554 -4.8334,2.35815 -1.82737,-5.08736 -3.39112,-10.407943 -5.12671,-15.543865 -0.55469,-1.638006 -0.95102,-3.35565 -1.52056,-4.997473 2.239,-0.228695 4.63906,-0.315177 6.8902,-0.346467 z M 92.441363,78.13945 c 1.272369,0.401071 2.042994,0.707765 3.26785,1.237124 -0.532549,1.941255 -1.219093,3.849594 -1.891251,5.752082 -2.844088,8.064335 -5.975854,16.142454 -8.765251,24.212804 l -1.016704,0.3773 c -0.955698,0.28652 -1.56969,0.46224 -2.549858,0.65122 1.141373,-4.24359 2.853138,-8.55693 4.19458,-12.770319 1.996333,-6.27069 4.27413,-12.480214 6.303567,-18.743695 0.08924,-0.269922 0.222459,-0.543332 0.457067,-0.716516 z M 193.7645,84.35228 c 0.31716,1.865753 0.39543,4.324672 0.63162,6.318041 0.51285,4.31379 1.32531,8.88175 1.64112,13.192959 -1.67756,-0.0668 -3.6129,-0.40524 -5.30666,-0.64577 -2.44009,-0.34583 -4.88737,-0.6478 -7.33826,-0.90698 -1.03246,-0.11877 -2.06175,-0.24911 -3.0915,-0.39182 -0.31716,-1.42128 -0.88806,-4.173839 -0.99872,-5.514449 1.90565,-1.84331 4.58867,-3.87953 6.66166,-5.5725 2.55346,-2.085201 5.20679,-4.506929 7.80074,-6.479481 z m -80.68674,1.608986 c 2.41825,1.972553 4.89299,4.394281 7.27349,6.479485 1.93258,1.69297 4.43341,3.72919 6.20999,5.5725 -0.10317,1.34061 -0.63465,4.093169 -0.93033,5.514449 -0.96001,0.14271 -1.92024,0.27305 -2.88276,0.39182 -2.28489,0.25917 -4.5668,0.56114 -6.84161,0.90698 -1.57904,0.24053 -3.38283,0.57899 -4.94676,0.64577 0.29442,-4.31117 1.04963,-8.880989 1.52775,-13.194779 0.22019,-1.993366 0.29455,-4.450469 0.59023,-6.316225 z m 148.78434,8.405915 c 0.36439,1.35191 0.8579,2.95899 1.14266,4.29728 -4.05018,1.977589 -8.69417,3.791779 -12.84826,5.670449 -1.41304,0.63833 -5.54059,2.56663 -6.77683,2.96947 -0.67616,0.36624 -3.29574,1.71406 -3.97325,1.39856 0.26317,-0.71588 2.53277,-1.92408 3.29125,-2.38174 3.45904,-2.48174 8.03556,-5.02554 11.66061,-7.393709 2.0379,-1.33123 5.43622,-3.5756 7.50382,-4.56031 z m -219.924851,0.002 c 1.236105,0.43998 5.394557,3.22078 6.760634,4.1304 3.555808,2.367219 8.098907,4.827669 11.500456,7.272189 0.648469,0.365 2.347741,1.38359 3.4352,2.21666 0.215177,0.16494 0.405286,0.32224 0.559638,0.46619 0.154839,0.14425 0.272223,0.2744 0.340101,0.38456 -0.0092,0.004 -0.01993,0.008 -0.03059,0.0109 -0.03211,0.01 -0.06925,0.0151 -0.113367,0.0163 -0.176423,0.005 -0.444292,-0.0541 -0.766577,-0.15419 -0.42831,-0.13299 -0.952655,-0.33861 -1.482769,-0.56414 h -0.0018 c -1.06138,-0.45162 -2.147241,-0.98197 -2.54626,-1.16275 -6.333844,-2.6392 -12.606364,-5.42766 -18.811729,-8.360569 0.267895,-1.27721 0.751105,-3.04378 1.157063,-4.25556 z M 151.90327,104.75231 c 1.79903,1.61816 6.65222,5.3019 7.83853,7.03093 0.47236,8.93301 1.07159,17.85853 1.79767,26.77412 0.12687,1.77556 0.15161,3.51302 0.26632,5.26775 0.41164,6.54211 0.91638,13.07598 1.51696,19.60353 -3.28495,2.28151 -8.36891,5.74754 -11.3259,8.30795 -0.76388,-0.41766 -2.74636,-1.99763 -3.58096,-2.60304 l -7.9195,-5.66501 c 0.01,-1.42442 0.24068,-3.28192 0.3473,-4.74714 l 0.74318,-10.77858 2.48148,-36.42079 c 1.0334,-1.43285 6.20325,-5.47263 7.83492,-6.76972 z m -7.06294,1.02671 c -1.46932,1.35408 -3.57534,2.58055 -4.96476,4.027 -0.59828,4.16142 -0.38172,9.56223 -1.30282,13.84963 -2.2884,0.18475 -4.63419,0.2129 -6.93339,0.3646 -5.40274,0.33986 -10.79605,0.82421 -16.1737,1.44936 -13.38886,1.56563 -24.105557,3.91698 -37.139393,6.99464 l -1.527756,0.45713 c -0.02996,-5.43958 -0.01386,-10.87912 0.05038,-16.31843 3.796312,-1.50209 10.122146,-3.04148 14.185276,-4.027 17.405893,-4.22182 34.223673,-6.03937 52.075063,-6.78423 0.52554,-0.035 1.19287,-0.0141 1.73109,-0.0127 z m 14.60275,0.0581 c 19.74611,0.31889 39.38559,3.00525 58.50278,8.00321 2.25249,0.60378 7.16237,1.78154 8.92901,2.76448 0.0351,5.42177 0.0351,10.8442 0,16.26582 -20.23332,-5.48488 -41.03302,-8.56967 -61.97758,-9.19317 -0.12821,-1.11696 -0.16509,-2.5937 -0.25553,-3.75309 -0.28341,-3.34241 -0.50834,-6.69013 -0.67839,-10.0403 -1.11478,-1.22007 -3.07756,-2.53383 -4.52029,-4.04695 z M 58.227912,116.08034 c 3.455944,-0.18231 10.467641,2.22364 13.44569,4.05784 -0.129162,5.76569 -0.04121,11.21551 0.009,16.96963 -3.446492,-4.15978 -5.144569,-6.63946 -9.360879,-10.1201 1.59443,-1.84331 3.034324,-2.38392 5.182493,-3.33407 -3.170903,-0.29087 -3.711778,-0.47553 -6.206395,1.82122 -6.388498,5.8816 -5.939488,15.80756 -8.108442,23.57247 -1.470124,5.26367 -6.121913,11.70552 -9.364477,16.10801 -2.851044,3.64879 -6.524536,5.54347 -10.332595,7.66582 -3.210851,1.79582 -4.75182,2.24975 -8.345973,2.16949 0.584217,-3.97939 2.25007,-7.77329 2.143177,-12.07919 -0.1628,-6.81053 -3.08399,-13.66659 -1.736496,-20.47059 0.48979,-2.47334 2.617792,-6.20081 4.705632,-7.58781 3.028787,-2.01201 6.561571,-3.17303 9.708177,-5.21333 -1.937764,4.57541 -3.238341,9.88651 -5.439818,14.63687 2.376927,-2.06738 5.529524,-6.69932 7.176313,-9.49428 2.04088,-3.46405 3.816198,-7.36276 5.869893,-10.85659 1.8549,-3.15548 3.383287,-4.865 6.805621,-6.27813 1.413444,-0.63289 2.222939,-1.12524 3.849081,-1.56726 z m 186.330418,0.0127 c 1.57726,0.009 2.50875,0.53035 4.07582,1.22079 1.40763,0.69329 3.56386,1.52164 4.64625,2.73546 5.00164,5.60597 7.04629,13.33242 11.79016,19.20082 1.41169,1.74684 2.08104,3.37176 3.94086,4.73264 -2.02577,-4.5195 -3.30115,-10.00638 -5.33365,-14.37024 1.24028,0.61902 2.65468,1.41221 3.91926,2.06973 1.59524,0.82909 4.12034,1.96272 5.4848,2.96947 9.76036,7.20125 3.43296,19.05706 3.33983,28.74772 -0.0256,2.73183 1.57815,8.67483 2.0694,11.4189 -1.41169,1.08974 -5.10647,-0.50338 -6.56809,-1.13735 -2.63308,-1.27885 -8.33157,-4.68004 -10.18324,-6.63368 -3.56431,-3.76307 -9.47918,-12.48824 -10.94081,-17.34513 -2.38341,-7.9185 -2.00507,-20.07442 -9.58582,-25.21048 -1.82871,-1.23926 -2.85532,-1.16888 -4.8352,-0.7927 2.21201,0.96049 3.42937,1.42342 4.98816,3.34495 -2.28894,1.84453 -3.55803,3.08918 -5.44342,5.42376 -1.32532,1.64195 -2.33122,3.05072 -3.91027,4.47867 0.0121,-4.24209 0.13091,-8.47657 0.15116,-12.71771 0.005,-1.35367 0.006,-2.66874 -0.23033,-4.00704 2.87466,-1.71556 8.71802,-3.67782 11.90713,-4.09956 0.25542,-0.0207 0.49268,-0.0302 0.718,-0.029 z m -2.78919,6.56655 c -0.77872,0.0401 -1.43329,0.0307 -2.18096,0.25395 l 0.054,0.12154 c 1.0122,0.29509 2.17602,0.4388 3.0897,0.74191 2.52107,0.79167 4.2949,2.442 5.56758,4.72175 2.70866,4.84845 4.4366,10.9505 5.24907,16.42001 0.96498,6.48714 2.18771,9.82307 6.06784,15.1847 1.89079,2.61346 2.80223,4.31724 5.27606,6.74976 0.46023,0.43943 0.98837,0.97228 1.46478,1.38042 -1.50616,-3.84197 -4.03443,-7.62045 -6.09123,-11.21211 -0.84081,-1.46794 -1.97133,-3.17172 -2.63263,-4.72537 -0.48721,-1.14689 -0.83226,-3.12818 -1.08869,-4.38799 -0.80301,-3.95489 -1.26459,-8.09359 -2.30513,-11.99937 -0.68155,-2.56149 -2.3753,-5.50154 -3.53057,-7.90345 -0.61812,-1.28142 -2.34021,-4.09561 -3.67093,-4.63831 -1.04999,-0.42787 -4.1163,-0.78649 -5.26887,-0.70744 z m -180.879802,0.0218 c -0.370854,0.0154 -0.727528,0.0495 -1.056293,0.10339 -2.16923,0.33441 -4.032762,0.55761 -5.274266,2.62118 -1.728447,2.87291 -3.806301,6.65544 -4.820799,9.85527 -1.017463,3.20922 -1.353434,6.7679 -2.042406,10.0548 -0.380316,2.02031 -0.814626,5.3122 -1.61413,7.1434 -0.964432,2.20805 -2.829453,4.89589 -4.09201,7.0019 -1.705911,2.88421 -3.297897,5.83553 -4.772212,8.8449 0.964699,-0.84213 1.782069,-1.58541 2.695616,-2.48332 2.954961,-3.45968 6.927224,-9.39724 8.819235,-13.68274 0.547262,-1.23939 1.149326,-5.48039 1.462975,-7.05813 1.233,-6.20199 2.987217,-16.03859 8.372965,-20.02981 1.563796,-1.15884 3.788663,-1.75388 5.653955,-2.05522 -0.981736,-0.24121 -2.22007,-0.36173 -3.33263,-0.31562 z m 111.025922,6.82776 c 5.50369,0.18339 13.86268,1.08815 19.2436,1.87382 -3.262,3.23439 -7.84662,7.09687 -11.3853,10.10379 -1.58038,1.41516 -5.58332,5.05978 -7.23929,6.06952 -1.94613,-1.2364 -3.86707,-2.51198 -5.76193,-3.82565 -0.23887,-2.10411 -0.3185,-4.98954 -0.51285,-7.24316 1.01626,-1.53598 4.39388,-5.64384 5.65577,-6.97832 z m -40.16432,0.004 c 2.06989,1.95827 3.82086,4.83603 5.8195,6.81143 -0.28693,2.44233 -0.33921,4.85485 -0.64962,7.2867 -1.55542,1.56699 -3.95018,2.85532 -5.87888,4.02519 -1.902,-1.59543 -3.78741,-3.21272 -5.65216,-4.85236 l -8.54212,-7.49168 c -1.26214,-1.1077 -3.06518,-2.87849 -4.34933,-3.81476 4.93281,-0.90146 12.22925,-1.50623 17.33076,-1.8575 0.61583,-0.0543 1.29901,-0.0742 1.92185,-0.10702 z m -38.067938,5.21877 c 0.586271,0.15483 4.574988,3.37478 4.770412,3.95081 1.154991,3.40649 1.376241,7.25215 3.651136,10.29607 0.71286,0.9537 3.15997,4.16669 4.21617,4.6238 4.49622,1.94956 9.98126,2.71551 14.78451,3.65151 -1.59969,0.5265 -3.93253,1.52917 -5.54059,2.15499 l -10.27501,3.95263 c -2.85253,-3.34405 -6.51208,-6.78514 -9.213325,-10.02034 2.050867,4.23515 5.280925,10.01489 7.662175,14.15617 2.18029,-0.59315 19.76406,-6.99237 20.35208,-6.89306 l -0.0216,0.21042 c -0.76928,1.29789 -2.09654,4.39252 -2.92775,6.02237 -3.66082,7.25677 -7.22738,14.56251 -10.6979,21.9145 -1.02759,2.12234 -1.97379,4.75985 -3.17427,6.72437 -0.35374,0.5782 -2.21201,1.25935 -2.88276,1.5328 -0.17842,-3.54539 -0.45329,-7.07401 -0.7054,-10.61532 -0.11526,-1.61896 0.004,-3.69504 -0.50745,-5.21333 -0.38153,-1.13327 -12.615497,-14.98018 -14.512778,-17.37053 -0.187058,-2.66381 0.258713,-6.07406 0.410281,-8.74331 0.209999,-3.52091 0.382167,-7.03904 0.586629,-10.5609 0.11782,-2.03078 0.367055,-4.13058 0.268122,-6.16204 -0.04224,-0.86649 -0.308252,-1.67756 -0.588429,-2.49058 1.458248,-0.33645 2.906247,-0.7107 4.345737,-1.12103 z m 116.246198,0.0907 c 0.82865,0.0785 3.40955,0.70831 4.35293,0.91605 -0.74903,4.31079 -0.13271,7.16593 -0.018,11.44068 0.14171,5.36135 0.97262,11.27243 0.87275,16.55243 -1.22949,1.84072 -3.38663,4.04832 -4.8442,5.77203 -1.84221,2.17948 -3.72581,4.37936 -5.56398,6.55749 -0.93528,1.10879 -3.70647,3.88867 -4.07221,5.12263 -0.34685,1.17545 -0.50521,4.47732 -0.60104,5.82282 -0.21997,3.33724 -0.46471,6.67313 -0.73597,10.00766 -0.32526,-0.13197 -0.64737,-0.26667 -0.96993,-0.40271 -2.40095,-1.02172 -2.47112,-2.34772 -3.51977,-4.56937 l -3.66014,-7.76196 -8.18402,-16.79006 c -1.07024,-2.24615 -2.11888,-4.13856 -3.0609,-6.46496 -0.0445,-0.12654 -0.0432,-0.21995 -0.0594,-0.35736 0.61542,-0.0462 18.19406,6.20739 20.14154,6.88219 0.86105,-1.20947 2.18052,-3.82112 2.92955,-5.17344 1.64517,-2.97535 3.30744,-6.0006 4.78121,-9.06437 -2.62769,2.68829 -6.77548,7.781 -9.43286,9.98224 -1.58984,-0.79043 -3.97819,-1.62576 -5.67195,-2.27471 -3.30788,-1.29245 -6.63332,-2.5323 -9.97629,-3.72407 4.10146,-1.02172 10.14455,-1.72236 14.01252,-3.26514 2.93675,-1.17272 6.75254,-7.10394 7.39765,-10.21806 0.21459,-1.03519 0.88894,-4.2815 1.30462,-4.99384 0.67076,-1.14675 3.4172,-3.1452 4.57787,-3.99617 z m 11.7002,2.40894 c 1.72748,0.7786 3.46039,1.11147 5.20948,1.85932 1.66002,5.33605 3.38887,6.4262 7.36345,9.97499 -1.63976,-0.56324 -3.30428,-1.68349 -4.89277,-2.52685 1.56959,2.76829 4.05107,5.09633 6.31976,7.26492 l 1.29023,1.14099 c -2.65198,-1.32102 -5.90769,-2.27198 -8.49353,-3.88007 -1.0473,-0.65166 -2.25744,-1.65343 -3.24266,-2.43434 1.3523,0.41222 2.36767,0.78409 3.67273,1.29155 -1.50751,-2.13146 -2.07165,-3.7146 -3.29304,-5.77205 -1.50886,-2.5442 -2.66503,-4.18759 -3.93365,-6.91846 z m -139.520633,0.02 c -0.961189,2.38423 -2.446386,4.44448 -3.674531,6.64274 -1.042441,1.86616 -1.498959,3.02656 -2.7514,4.86687 l 0.669405,0.0453 c 0.190569,0.29794 0.143458,0.17777 0.199742,0.52605 0.588298,-0.23127 1.403283,-0.4553 2.022612,-0.64577 -2.35709,1.77134 -4.078916,3.15675 -6.872202,4.19752 -1.553669,0.5782 -3.056416,1.32101 -4.651647,1.88289 2.655897,-2.06656 5.342959,-5.23202 7.363459,-7.93609 -1.536395,0.60282 -3.103827,1.47748 -4.772212,2.13866 4.124942,-3.91626 5.593546,-4.1625 7.264487,-9.95322 1.972455,-0.54093 3.331191,-1.02408 5.202287,-1.76499 z m 115.411243,1.38405 c 0.20378,0.009 0.0909,-0.0205 0.30951,0.15963 0.24158,2.09337 -0.15926,5.17093 -1.14987,7.04363 -2.49813,4.72138 -8.04366,6.23006 -12.69171,3.76216 -0.38734,-0.2136 -0.41028,-0.22447 -0.73958,-0.51698 l -0.018,-0.28842 c 0.46561,-0.93641 1.43867,-1.51951 2.29972,-2.19852 2.04331,0.88907 4.75467,1.43421 6.38635,-0.59861 1.35365,-1.68481 1.05989,-3.69364 0.83316,-5.69041 1.60333,-0.43168 3.21566,-1.07918 4.77041,-1.67248 z m -91.55378,0.1034 c 1.1994,0.12816 3.78052,1.15835 5.00434,1.60717 -0.18665,2.78095 -0.19038,6.24526 3.32724,6.97107 1.35811,0.28026 2.64186,-0.17669 3.88687,-0.68387 l 1.27763,0.98861 c 0.47965,0.36828 1.19255,0.83126 1.27042,1.40945 l -0.30591,0.22131 c -1.71885,1.03532 -3.69153,1.5641 -5.69354,1.52735 -2.42593,-0.0435 -4.5179,-1.0861 -6.16321,-2.84792 -2.50014,-2.67741 -2.67105,-5.74613 -2.60384,-9.19317 z m 111.62154,6.46134 c 2.77749,5.8431 5.16,11.79939 7.77554,17.7297 1.10128,2.49782 2.61104,5.92893 3.38302,8.46758 0.22133,0.73194 -0.11337,4.66914 -0.10258,5.93166 -1.40224,-1.68699 -2.56605,-3.49506 -4.19638,-4.97389 1.42654,2.51008 2.21291,4.47188 3.21027,7.14521 1.10533,3.41751 2.52647,7.20688 2.31053,10.74411 -0.44132,-1.26795 -0.91008,-2.5273 -1.40539,-3.77485 -0.15677,0.0401 -0.32341,0.0911 -0.48766,0.15419 -0.16465,0.0633 -0.32847,0.13971 -0.48046,0.23036 -0.30369,0.18118 -0.56281,0.4209 -0.6946,0.73647 v 0.002 c 0.63432,2.22573 1.07159,4.50271 1.30642,6.806 0.10527,1.05845 0.40938,4.85189 -0.16015,5.55254 -0.37114,-0.33332 -0.73464,-3.47511 -1.09228,-4.45328 -1.29428,-3.52907 -2.75995,-6.43459 -4.94496,-9.47253 1.02975,5.87725 2.02576,13.03334 -0.26993,18.75821 -0.48045,-5.56842 -1.09812,-6.19967 -2.44368,-11.13955 -1.08508,3.74402 -2.67808,9.58997 -4.89278,12.56533 -1.65462,2.21894 -4.22382,4.81607 -6.09843,6.98195 -0.64781,-5.65005 -2.20616,-9.69879 -5.73673,-14.11628 -0.005,-1.96043 0.24743,-4.55124 0.39049,-6.54297 0.21189,-3.33588 0.45616,-6.66994 0.73418,-10.00039 0.78277,-1.11695 3.1014,-3.68687 4.07582,-4.7943 l 6.23878,-7.21777 c 1.43463,-1.6625 3.27595,-3.69233 4.53648,-5.44189 -0.0364,-6.38606 -0.78817,-13.37313 -0.95552,-19.87743 z m -131.545347,0.21949 c 0.116742,0.90512 0.0055,2.40619 -0.02699,3.35947 -0.08881,2.60938 -0.213769,5.26502 -0.415679,7.86897 -0.202574,2.61211 -0.100636,5.73078 -0.419278,8.28438 0.674267,1.06525 2.622473,3.22796 3.543169,4.32994 2.046141,2.46654 4.123814,4.90723 6.233388,7.31935 1.726687,1.99853 3.61011,4.10409 5.141107,6.24003 0.61016,4.86369 0.87572,11.24431 0.99691,16.21684 -0.63796,1.09791 -1.477278,2.14231 -2.126983,3.24156 -1.956523,3.33724 -3.090735,7.09895 -3.309238,10.97086 -1.401429,-1.45162 -5.898104,-6.40284 -6.825415,-7.88167 -1.680399,-2.6815 -3.387108,-8.56646 -4.351135,-11.68739 -1.193318,3.1427 -2.187311,7.78102 -2.375309,11.12505 -1.450693,-4.22699 -1.703154,-8.01908 -1.283027,-12.4311 0.09947,-1.94548 0.582891,-4.29547 0.939327,-6.23278 -1.897686,2.17268 -3.88363,6.46361 -4.890978,9.1968 -0.374107,1.01491 -0.668423,4.14627 -1.126472,4.49319 -0.355487,-0.55643 -0.27438,-1.83165 -0.27532,-2.54318 -0.009,-7.20098 2.674339,-13.66187 5.078123,-20.29826 -2.104709,2.54544 -3.649737,4.88229 -4.756017,7.98689 -0.672775,1.88833 -1.609003,3.69777 -2.089192,5.66501 -0.04791,-5.88405 3.125058,-12.99071 5.448815,-18.3156 -1.343533,1.58223 -2.681035,3.31728 -3.958848,4.95393 -0.06654,-5.5208 -0.900195,-4.62333 1.360404,-10.00401 0.958222,-2.2924 1.934618,-4.57664 2.929548,-6.85135 2.153568,-4.92219 4.311051,-10.19316 6.559092,-15.00693 z m 87.665107,13.47595 c 0.76523,0.67344 5.93017,12.87008 6.93699,14.89447 3.14053,6.3194 6.01879,13.01111 9.19172,19.36044 -3.78565,-1.19177 -8.0477,-2.94134 -11.6768,-4.53854 0.95282,0.91424 2.09774,1.71238 3.0789,2.59941 3.99619,3.61886 8.36261,6.73434 12.51536,10.16001 1.49132,1.22987 3.76316,2.59715 5.07633,3.90184 1.11747,1.11151 2.22865,4.95349 2.65242,6.51395 0.59383,2.29648 0.0643,4.79522 -0.53624,7.01279 -1.7221,6.90168 -4.24991,7.31435 -9.22052,11.82161 -2.17827,-5.60924 -3.56341,-12.08872 -6.1722,-17.49933 -0.89615,-1.85976 -3.08116,-4.29455 -4.23777,-6.11487 -2.13913,-3.36853 -4.92337,-6.50169 -6.89919,-9.96411 -0.86241,-2.93862 -1.33971,-6.43141 -1.79588,-9.46526 -1.08914,-7.2146 -3.03977,-15.2042 -3.67814,-22.40791 0.49801,-0.52377 4.35879,-5.62283 4.76502,-6.2745 z m -43.95582,0.0925 c 0.79532,0.52242 4.61449,5.42965 5.12491,6.57925 -0.62433,5.85548 -2.23801,12.55309 -3.16168,18.54053 -1.04393,3.63383 -0.90927,9.56142 -2.32852,12.90818 -2.43577,3.53587 -5.14636,7.91251 -7.77014,11.2484 -4.17555,5.30721 -4.84532,8.02043 -6.86501,14.36296 l -2.59304,7.89438 c -4.48448,-3.69233 -7.12912,-4.97208 -8.9434,-10.599 -0.68574,-2.02983 -1.33229,-4.68819 -1.09948,-6.84045 0.16991,-1.57135 1.63186,-6.57201 2.72801,-7.56787 3.0489,-2.76856 7.50872,-5.99424 10.76087,-8.57099 3.44015,-2.72502 6.54644,-5.48724 9.85393,-8.19186 -3.69711,1.42578 -7.59014,3.12864 -11.36189,4.34082 3.47443,-8.64036 8.34831,-17.07893 11.90533,-25.7329 1.15824,-2.81754 2.67231,-5.47591 3.75011,-8.36964 z m 7.44084,8.74331 c 3.43921,2.34001 6.79294,4.93988 10.22283,7.31391 1.59362,1.10334 2.95384,2.23797 4.64085,3.25969 3.58456,-3.0774 7.4026,-5.31536 11.13696,-8.20637 1.07024,-0.82853 2.13239,-1.37818 3.23365,-2.30737 1.14988,6.5017 1.96369,13.33354 3.1149,19.87743 0.71799,2.74407 0.58752,8.43447 1.75629,10.85477 1.60198,3.32091 4.83204,6.76609 6.42053,10.36317 -2.88141,-2.45701 -5.46681,-4.35986 -8.51692,-6.57199 -1.08374,-0.6231 -2.61595,-1.8244 -3.75371,-2.37811 -3.89092,-1.8897 -8.79,-3.90682 -12.99942,-4.83603 -1.32396,-0.2925 -4.24833,0.76866 -5.53518,1.26252 -2.57343,0.9877 -7.13673,2.58626 -9.45806,4.04877 -3.95678,2.49103 -8.10165,5.75116 -11.81536,8.60544 1.72601,-3.02705 5.23022,-7.31028 6.65446,-10.2761 0.89465,-1.86249 1.47755,-8.29844 1.86246,-10.62621 1.11437,-6.73707 2.25498,-13.59068 3.03572,-20.38352 z m -65.75288,11.32458 c 0.05978,0.0476 0.118501,0.0939 0.178148,0.14149 -0.78831,3.64879 -1.563155,6.71348 -1.453977,10.48471 0.177071,6.11805 2.258119,9.85709 6.114622,14.30856 1.577965,1.82168 2.944576,3.79209 4.756016,5.54166 1.475928,1.42578 2.987854,2.74771 4.457305,4.17212 -0.326603,-2.14138 -0.330837,-3.68552 -0.331104,-5.82826 3.500878,4.64873 7.438137,8.78276 11.322307,13.07505 0.989262,1.09382 1.672614,4.4356 2.706413,6.08041 2.67762,4.26237 6.72073,6.56655 10.22282,9.85346 l 0.11877,0.11428 c -1.09587,8.2295 -1.21973,17.72243 1.79408,25.5642 -3.57957,-4.30317 -7.51259,-14.05505 -8.49173,-19.58537 -0.77009,6.10444 -0.4132,7.11618 1.28663,12.89548 -6.303076,-9.74644 -6.264381,-15.09537 -8.401761,-26.02677 -1.15945,4.22155 -1.275153,6.30443 -1.221844,10.51373 0.454953,4.03517 1.729068,8.19685 3.123891,11.99938 -1.621553,-1.6421 -2.9519,-3.87327 -4.185582,-5.82283 -3.611419,-5.70718 -5.765481,-11.32186 -6.735441,-18.02355 -0.336056,-2.32233 -0.476283,-4.56031 -0.782773,-6.83501 -2.808128,5.95343 -4.453436,12.32089 -3.778901,18.95048 0.201901,1.98493 0.708289,4.49318 1.074287,6.48492 C 72.32335,235.74986 70.910624,223.3954 69.874125,208.43836 c -0.959162,2.09376 -1.29243,3.37259 -1.896649,5.58338 -0.503673,-5.28273 -0.888447,-11.48648 0.496656,-16.64676 -3.016505,4.5399 -4.518798,9.52967 -4.989949,14.9253 -0.62446,-1.74548 -0.772824,-4.30862 -1.049095,-6.15478 -1.552592,-10.38041 1.71661,-16.8939 5.788917,-26.14105 1.105598,-0.22448 2.145971,-0.59362 3.215665,-0.9487 z m 160.79224,0.0272 c 1.19171,0.39453 2.14363,0.61131 3.35963,0.88885 0.99466,1.96724 1.78873,4.16576 2.64162,6.11124 3.02582,6.90984 4.40602,12.88822 3.17788,20.38171 -0.35224,2.14955 -0.3374,3.50004 -1.05269,5.78292 -0.64376,-5.7412 -1.81521,-9.8462 -4.93416,-14.83642 1.05404,4.09366 1.16246,12.05968 0.41747,16.27852 -0.48046,-1.82983 -1.19755,-3.66374 -1.88585,-5.42556 -0.32525,12.2565 -2.54896,26.07211 -10.66549,35.68794 -0.87725,1.0394 -1.77788,2.04659 -2.71181,3.03294 0.62756,-3.33316 1.42337,-6.68354 1.28301,-10.10378 -0.18489,-4.52085 -1.52146,-11.29057 -3.92645,-15.18289 -0.73689,9.50291 -2.24035,16.03637 -7.2447,24.34886 -1.43193,2.37674 -2.46347,4.12767 -4.43931,6.18199 1.25649,-3.85694 2.74466,-7.87579 3.06992,-11.91231 0.20514,-3.46376 -0.11292,-7.07628 -1.23985,-10.36863 -0.29286,1.28565 -0.58437,3.36264 -0.83135,4.75441 -1.49267,8.40092 -2.939,14.42329 -7.75575,21.65148 0.24563,-1.19314 0.91954,-3.0987 1.24884,-4.38435 0.85431,-3.32908 0.57628,-5.70854 0.25913,-9.03354 -0.79088,5.4242 -5.06508,15.328 -8.47014,19.48561 0.58573,-1.55638 1.3568,-3.71228 1.64292,-5.34214 1.07968,-6.14661 1.14222,-13.76118 0.0558,-19.86835 2.49678,-2.6434 5.83931,-4.67369 8.39276,-7.48986 2.76399,-3.04611 2.92056,-5.25233 4.65345,-8.66168 0.3779,-0.74146 3.07441,-3.2996 3.7951,-4.12677 2.61959,-3.00392 5.3395,-5.81738 7.61358,-9.12606 -0.0162,1.98766 -0.0774,3.97167 -0.18534,5.95525 1.30507,-1.5006 3.27324,-3.18986 4.71462,-4.68366 1.7086,-1.53325 2.98354,-3.58439 4.4951,-5.24961 7.19881,-7.92475 6.60587,-14.66773 4.52208,-24.74611 z m -80.24586,7.63498 c -2.73723,0.40587 -7.44324,2.26183 -9.77116,3.74583 -1.24163,0.79045 -4.43751,3.97622 -5.36064,5.24417 2.65643,-1.38086 12.40784,-5.87769 15.1246,-6.10217 3.11894,0.79452 12.24139,4.53536 14.94466,6.18018 -3.33083,-4.06917 -6.37916,-6.52166 -11.3511,-8.0141 -1.29103,-0.38757 -2.14432,-1.01669 -3.58456,-1.05391 z m -0.15116,14.51716 c 1.13129,0.0577 2.20459,0.61173 3.27685,0.94508 6.37284,1.9822 11.3565,5.67272 16.61457,9.63034 2.23495,1.6829 4.87163,3.10595 7.00536,4.99021 0.45347,0.40134 0.88803,0.85575 1.11747,1.4421 1.3901,3.81614 2.64343,7.70028 4.02543,11.52593 0.48858,1.34823 1.01357,2.66969 1.11748,4.10501 -1.55879,2.64611 -5.87394,8.56736 -8.256,10.28155 -1.3469,-0.0925 -5.62067,-1.03441 -7.18891,-1.34596 l -17.31996,-3.57896 c -0.8489,-0.0639 -4.12522,0.69566 -5.17709,0.91606 -3.45338,0.70744 -6.90177,1.44436 -10.3434,2.20759 -3.04135,0.6435 -6.60017,1.19178 -9.55163,1.94276 -3.03715,-2.42845 -6.46295,-7.21188 -8.51152,-10.58993 0.13266,-1.00674 0.4281,-1.85841 0.80437,-2.80802 1.7005,-4.28821 3.01494,-8.97549 4.73623,-13.20929 0.43862,-1.07886 6.00988,-4.52629 7.27528,-5.42556 3.0717,-2.18356 6.50285,-5.0646 9.77835,-6.82777 3.23326,-1.71284 6.61749,-3.11594 10.10947,-4.19207 0.16414,-0.0141 0.32604,-0.0173 0.48765,-0.009 z m -0.27892,3.12365 c -0.17542,0.007 -0.3461,0.0207 -0.51105,0.0435 -5.51314,0.91288 -14.61184,6.7026 -18.69656,10.63165 1.13245,-0.66119 3.92678,-2.33775 4.95396,-2.84793 2.75118,-1.36863 12.26613,-5.71217 15.02742,-5.5598 4.1325,1.00947 9.3258,3.19575 13.19917,5.09906 1.83682,0.90199 3.80904,2.23979 5.61077,3.11457 -3.85954,-3.42406 -14.14574,-10.69544 -19.58371,-10.48108 z m 11.59223,10.60625 c -1.78958,1.33191 -3.34253,2.63342 -3.65833,4.99928 -0.45212,3.37806 0.3491,6.5584 1.62313,9.663 1.216,2.96175 3.1077,3.94356 5.67195,5.48906 -0.94067,-2.02711 -2.06356,-4.34536 -2.70462,-6.47586 2.42794,1.48428 3.32634,2.03209 5.96347,3.08374 0.90289,0.26393 2.36316,0.64577 3.19587,0.98317 -0.33471,1.56999 -0.68155,2.73138 -1.25244,4.23742 2.14588,-1.64617 3.49099,-2.68059 4.33854,-5.40562 -0.56144,-2.52912 -1.51651,-4.99249 -2.25474,-7.44814 -0.68425,-2.27199 -2.0973,-3.77259 -4.07042,-4.95756 -2.21335,-1.44754 -4.65524,-2.70326 -6.85241,-4.16849 z m -22.47726,0.11065 c -2.86184,1.68562 -6.85425,3.78166 -9.31769,5.89176 -1.33936,1.14824 -2.68356,6.94884 -3.35243,8.65623 -1.26242,3.22024 1.60221,5.4614 3.84189,7.37559 -0.70328,-1.74549 -0.91927,-2.58354 -1.16786,-4.46236 1.28186,-0.25304 2.17048,-0.45984 3.41361,-0.87614 2.12644,-0.90064 3.81439,-1.78222 5.58197,-3.25969 -0.75484,2.4883 -1.52469,4.49364 -2.85217,6.75883 4.11698,-2.30465 5.53433,-3.55628 6.8776,-8.40773 1.14096,-4.12223 1.74199,-9.27118 -2.7784,-11.61119 -0.0824,-0.0218 -0.16406,-0.0435 -0.24652,-0.0653 z m -22.56004,31.03331 c 0.68735,0.61084 1.34726,1.62848 2.31413,2.44885 1.55286,1.3183 4.07123,2.82979 6.12722,2.99304 2.6397,0.20952 6.22655,-0.83941 8.89661,-1.31149 3.67997,-0.65031 7.33133,-1.44437 10.97501,-2.20759 1.52923,-0.32107 4.61339,-1.12921 6.02104,-0.93602 3.11354,0.3374 5.80962,1.27069 8.90562,1.80128 4.66289,0.79859 11.06812,2.53546 15.67163,2.7409 2.74106,0.12244 6.86906,-3.41298 8.56012,-5.49451 0.19839,5.82147 -0.12237,9.24124 -3.00513,14.5226 -0.36574,-2.15363 -0.3149,-2.94814 -1.20565,-4.91402 -0.16735,1.00947 -0.18939,2.18764 -0.40668,3.18895 -1.11748,5.15347 -2.48687,9.24033 -6.58968,12.63063 2.7316,-4.79294 3.98809,-10.29062 1.46837,-15.48218 -0.57763,3.69368 -1.15842,7.93065 -3.27865,11.15769 -0.21729,-1.86385 -0.56503,-2.62707 -1.43418,-4.25556 -1.81792,5.12626 -3.43385,5.80877 -6.56089,9.61945 0.20649,-0.48569 0.39948,-0.97545 0.58303,-1.46931 1.27808,-3.45287 0.80122,-6.53299 -0.6874,-9.79541 -0.38599,3.7862 -0.92268,6.43233 -2.62723,9.88793 -1.07024,2.11553 -1.84627,2.99485 -3.28225,4.90496 0.28072,-4.47596 1.01938,-7.32933 -0.73778,-11.75631 0.0418,7.19418 -2.04871,11.61844 -5.91129,17.37597 -4.02925,-5.26775 -5.72048,-10.7491 -5.92928,-17.31611 -1.7912,4.70452 -0.9875,7.2935 -0.71258,11.98305 -0.8902,-1.44482 -1.89689,-2.8112 -2.764,-4.30091 -2.05074,-3.52091 -2.66525,-6.76201 -3.14369,-10.71146 -0.1996,0.48433 -0.38886,0.97274 -0.56863,1.46387 -1.21951,3.41479 -0.98135,6.46044 0.53804,9.67932 -2.78964,-2.4747 -5.51617,-6.18245 -6.76604,-9.71016 -0.51069,1.49653 -1.00252,2.99894 -1.47556,4.5077 -1.84762,-4.70452 -2.64438,-6.51939 -3.15089,-11.63477 -2.05316,5.75481 -1.52909,10.97403 1.79768,16.10438 -4.15693,-3.37806 -5.56098,-7.25358 -6.79303,-12.35672 -0.2517,-1.04349 -0.2104,-2.55815 -0.41568,-3.21798 l -0.20333,0.0707 c -0.59748,0.98499 -0.89206,3.10188 -1.11568,4.30999 -2.67776,-5.2215 -3.196,-8.74423 -3.0933,-14.52079 z m 33.66461,6.06045 c -2.22685,0.24897 -5.19648,0.91017 -7.44803,1.3496 -2.43187,0.4748 -5.4794,0.98453 -7.84932,1.5981 4.98328,2.33049 6.36547,2.58898 11.87834,1.40401 0.73649,-0.15918 3.05686,-0.64305 3.74111,-0.66754 6.45383,1.20538 9.25472,2.423 15.35494,-0.79452 -3.81264,-0.60677 -7.75799,-1.67432 -11.60842,-2.26201 -0.98926,-0.15238 -3.14684,-0.65213 -4.06862,-0.62764 z" />
    </g>
  </svg>
</svg>
