<svg viewBox="0 0 291.8411999020404 300" fill="#1e3a5c" fill-rule="evenodd" xmlns="http://www.w3.org/2000/svg"><path d="M38.83025,3.25072c-4.78931,1.87531 -10.89128,4.37046 -13.56072,5.54477l-4.85304,2.13457l-7.3106,9.25944c-11.79871,14.94365 -10.49258,11.96701 -11.93651,27.20968c-1.88402,19.89527 -2.68796,16.30696 7.20548,32.17383c4.66512,7.48163 9.01543,14.11738 9.66795,14.74593c0.65252,0.6291 7.78447,4.05291 15.84889,7.60908c12.8521,5.66787 14.73286,6.65264 15.23232,7.97565c0.52833,1.39872 2.60027,2.72173 6.71146,4.28494l1.23695,0.47005l-1.40199,2.05832c-1.60679,2.35952 -1.53108,4.62754 0.23748,7.11071c0.78869,1.10841 1.11549,2.60844 1.24512,5.72179l0.17647,4.22013l-2.98263,2.45811c-3.47883,2.86825 -7.5301,5.24792 -10.60751,6.23215c-1.19828,0.38291 -2.41072,0.83117 -2.69504,0.99621c-1.04414,0.60568 4.9843,2.19721 8.47947,2.23806l3.60519,0.04248l-3.70595,3.77295c-2.79526,2.84537 -4.31327,5.0148 -6.17496,8.82316c-1.35787,2.77783 -2.39438,5.12483 -2.30397,5.21579c0.09096,0.09042 1.61496,-0.54631 3.38678,-1.41615c5.72615,-2.80997 5.91624,-2.77184 3.78766,0.76309c-1.82792,3.03601 -4.03494,8.64723 -5.24792,13.34285l-0.63345,2.45103l-1.07355,-2.45103c-1.24403,-2.83992 -10.06283,-23.57889 -10.88529,-25.59963c-0.48421,-1.18902 -0.81538,-0.38345 -2.61225,6.36233c-1.13129,4.24845 -2.73971,11.60153 -3.5736,16.34019c-2.84864,16.19149 -1.81485,38.43485 2.04089,43.89792c0.68193,0.96571 3.93199,5.06491 7.22236,9.10911c3.29091,4.0442 7.55244,9.31391 9.47023,11.71047c3.79637,4.7441 4.46632,5.07853 10.2965,5.1428c2.50767,0.02778 2.95485,0.21024 3.75062,1.52944c3.8187,6.33128 7.81769,11.58247 12.5411,16.46819l5.52135,5.71144l0.37256,-5.98323c0.20534,-3.29091 0.42212,-6.18422 0.48258,-6.42986c0.05991,-0.2451 1.52944,1.64491 3.26531,4.19997c3.64277,5.36285 7.12051,8.70496 14.46052,13.8957c5.67386,4.01261 14.26825,9.44681 14.52861,9.187c0.08824,-0.08878 -0.08116,-1.29741 -0.37746,-2.68578c-0.29576,-1.38783 -0.46243,-3.70595 -0.36983,-5.15043l0.1683,-2.62641l2.45103,3.79474c3.36172,5.20381 9.14179,10.88856 14.88591,14.63972c2.64493,1.7277 4.90369,3.0469 5.01916,2.93143c0.11547,-0.11602 -0.36874,-1.66888 -1.07573,-3.45159c-2.49297,-6.28716 -2.40582,-6.29152 3.84757,-0.20425c3.25497,3.16891 7.58076,6.93369 9.61293,8.36727l3.69452,2.60517l2.16889,-1.43521c3.06487,-2.02836 8.87327,-6.93532 13.16801,-11.12386l3.66238,-3.57197l-0.56755,2.05451c-0.3121,1.1302 -1.03216,3.1395 -1.60025,4.46468c-0.56809,1.32573 -0.89544,2.41018 -0.72768,2.41018c0.81701,0 9.85531,-6.31766 12.26985,-8.57588c3.01585,-2.82141 8.87817,-10.33463 9.437,-12.09555c0.19445,-0.6133 0.60677,-1.11549 0.9156,-1.11549c0.58117,0 0.23584,4.8307 -0.63509,8.89015c-0.56047,2.6128 -0.84098,2.72064 8.14722,-3.13568c12.04599,-7.84874 17.61799,-12.83903 21.40619,-19.17358c0.96135,-1.60679 1.90363,-2.92108 2.09481,-2.92108c0.19118,0 0.52398,2.72881 0.74021,6.06384l0.39325,6.0633l4.09649,-4.02078c5.1025,-5.00827 9.52252,-10.4757 12.61354,-15.60161l2.37695,-3.94289l3.34211,-0.06427c5.60904,-0.10839 5.99576,-0.3219 10.24475,-5.65479c2.14819,-2.69613 6.3754,-7.92009 9.39452,-11.60916c7.85201,-9.59441 8.2055,-10.20935 9.37546,-16.31622c1.50548,-7.85582 1.37094,-25.6176 -0.26471,-34.98435c-1.49731,-8.57206 -5.61068,-25.20692 -6.09652,-24.65353c-0.20098,0.22876 -1.16015,2.37641 -2.13239,4.77297c-4.2125,10.38474 -9.96479,23.7363 -10.1478,23.55329c-0.10948,-0.10948 -0.82028,-2.34264 -1.57955,-4.96252c-1.39382,-4.81055 -3.31052,-9.11728 -5.33126,-11.98117l-1.10133,-1.56049l1.30722,0.38726c1.03815,0.30774 5.3781,2.24187 7.69786,3.4309c0.68465,0.35077 -1.13619,-4.23592 -2.95431,-7.44132c-0.95427,-1.68304 -3.35137,-4.68637 -5.3269,-6.67442l-3.59157,-3.61445l4.37481,-0.26362c2.40637,-0.14488 5.23322,-0.65688 6.28171,-1.13728c1.8911,-0.86712 1.89546,-0.87692 0.5474,-1.25874c-3.16782,-0.89708 -10.00782,-4.79966 -12.61789,-7.20003l-2.8165,-2.58992l0.128,-3.94452c0.10185,-3.14385 0.39707,-4.34159 1.4521,-5.89663c1.6765,-2.47009 1.67596,-4.3966 -0.00218,-6.86942l-1.32573,-1.95374l3.73537,-1.52617c3.11063,-1.27072 3.81326,-1.79633 4.20052,-3.14167c0.50655,-1.75875 -0.56755,-1.21517 21.56415,-10.91906l9.69082,-4.24899l6.60906,-10.67178c3.6346,-5.8694 7.66845,-12.33412 8.96423,-14.36521c2.00222,-3.14004 2.35571,-4.11936 2.35843,-6.53608c0.00272,-2.975 -2.03926,-26.46566 -2.48371,-28.56374c-0.25,-1.17976 -14.72197,-20.20791 -17.59403,-23.13226c-0.96516,-0.98259 -5.48377,-3.07196 -13.69526,-6.33291c-6.74033,-2.67598 -12.82705,-5.04149 -13.52532,-5.25609c-1.05067,-0.32299 -0.52506,0.72768 3.03165,6.06003c9.41522,14.11901 9.99094,15.30858 11.66962,24.13392c0.82845,4.35412 1.51528,8.50071 1.52672,9.21423c0.01144,0.71407 -1.60896,4.26806 -3.60029,7.89776c-6.13683,11.1854 -4.76208,9.94246 -15.23941,13.77532c-12.49807,4.57199 -11.29325,4.39551 -12.45286,1.82411l-0.98531,-2.18523l-5.50174,0.31537c-3.02566,0.17321 -5.85197,0.42648 -6.28062,0.56265c-0.47223,0.14979 -5.08071,-4.00553 -11.71047,-10.56012l-10.93104,-10.8074l-16.30152,-6.50666c-13.68273,-5.46144 -16.43769,-6.74305 -17.15284,-7.98c-1.05939,-1.83228 -13.38534,-7.285 -15.40281,-6.81386c-0.68901,0.16068 -4.00008,1.44774 -7.35744,2.85953c-4.8416,2.03544 -6.19674,2.84374 -6.55078,3.90585c-0.38454,1.15253 -2.79417,2.28436 -17.31624,8.13251l-16.87016,6.79425l-10.63637,10.60151c-9.79376,9.76108 -10.76492,10.58082 -12.25514,10.34443c-0.89054,-0.14107 -3.737,-0.39053 -6.32583,-0.55393l-4.70761,-0.29685l-0.87093,2.17706c-0.47931,1.19774 -1.05721,2.17542 -1.28434,2.17325c-0.22713,-0.00272 -4.89334,-1.67432 -10.36948,-3.71467c-6.06766,-2.26094 -10.24203,-4.12045 -10.68866,-4.76153c-1.16288,-1.66888 -8.41356,-14.91641 -8.75834,-16.00195c-0.17157,-0.54032 0.40796,-4.88517 1.28706,-9.65487c1.78544,-9.68429 1.41724,-8.87109 10.25456,-22.62789c2.86008,-4.45161 5.10468,-8.1897 4.98812,-8.30681c-0.1171,-0.11656 -4.1308,1.32247 -8.92011,3.19778M30.97279,15.96829c-2.73154,4.36555 -3.04254,5.54532 -5.78987,21.98736c-0.31863,1.90853 -0.45153,2.00658 -4.21359,3.10409c-2.13621,0.62311 -3.94616,1.07083 -4.02241,0.99512c-0.07571,-0.07625 1.17159,-3.44669 2.77184,-7.49034c4.2637,-10.77527 4.15967,-10.88257 -1.28924,-1.33009c-2.72609,4.77842 -5.03278,8.76433 -5.12646,8.85802c-0.09368,0.09368 -1.16941,-1.25438 -2.39057,-2.99516l-2.22063,-3.16564l7.64231,-9.96152l7.64231,-9.96152l4.40586,-2.13076c2.42325,-1.17214 4.59159,-2.13076 4.81872,-2.13076c0.22713,0 -0.77561,1.89927 -2.22826,4.22122M264.87171,14.62621c2.94287,1.57901 3.99681,2.70648 10.74041,11.49805c4.11228,5.36122 7.31332,10.01817 7.11343,10.34879c-0.19935,0.33062 -1.20754,1.78326 -2.24024,3.22719l-1.87749,2.62641l-2.13566,-3.68199c-1.17486,-2.02509 -3.37316,-5.9767 -4.88572,-8.78176c-1.51201,-2.80561 -2.853,-4.99683 -2.97991,-4.86992c-0.12691,0.12636 0.01797,0.8132 0.32081,1.52617c1.83282,4.30891 6.01428,15.37775 5.86558,15.52645c-0.09804,0.09804 -1.87313,-0.36765 -3.94507,-1.03488l-3.7675,-1.21299l-1.80014,-10.04486c-1.64001,-9.1516 -1.9837,-10.33844 -3.86445,-13.34449c-1.1351,-1.81485 -2.23861,-3.59593 -2.45212,-3.95868c-0.5316,-0.90252 1.70537,-0.07843 5.90807,2.17651M150.76763,26.95816l4.62972,2.07194l0.14053,31.66402l0.14053,31.66456h-9.81283h-9.81283l0.14053,-31.61391l0.14053,-31.61336l4.62972,-2.10298c2.54635,-1.15634 4.75227,-2.1117 4.90206,-2.12259c0.14979,-0.01089 2.35571,0.91287 4.90206,2.05233M147.37649,34.03019c0.17593,1.19937 -0.0463,1.73478 -0.91178,2.19776c-1.82901,0.97878 -3.73755,-0.3731 -3.35627,-2.3775c0.16885,-0.88836 -1.54687,0.83607 -1.88185,1.8911c-0.74566,2.34917 2.91073,5.19455 5.77844,4.49736c1.91616,-0.46624 3.7626,-2.34536 3.7626,-3.82905c0,-1.24022 -2.16399,-3.96522 -3.14875,-3.96522c-0.26144,0 -0.37038,0.71352 -0.24238,1.58554M113.23312,52.75278l-14.74811,17.67573l-7.36725,-2.9238c-4.05237,-1.60842 -7.60745,-2.92435 -7.90103,-2.92435c-0.29303,0 -0.53323,-0.18682 -0.53323,-0.4145c0,-0.22822 4.01805,-4.42765 8.92937,-9.33243l8.92991,-8.91684l13.53785,-5.5671c7.44622,-3.06161 13.62009,-5.50065 13.71977,-5.42004c0.09968,0.08116 -6.45546,8.10147 -14.56728,17.82333M199.92436,54.66295c5.01753,4.99846 9.12327,9.22131 9.12327,9.38363c0,0.16231 -0.73585,0.573 -1.63565,0.91233c-1.78653,0.67431 -0.62093,1.70864 -15.55259,-13.79493c-2.44667,-2.5409 -3.66075,-3.20431 -13.31344,-7.28064c-7.80299,-3.29473 -11.16307,-5.00337 -12.66365,-6.43858c-1.12312,-1.0741 -2.04252,-2.13294 -2.04252,-2.35299c0,-0.22005 6.06602,2.04906 13.48066,5.04149l13.48066,5.44183l9.12327,9.08787M130.89741,92.2541c-0.17865,0.46733 -1.03869,0.6547 -2.49896,0.54467c-1.97771,-0.14924 -3.61826,-1.29305 -14.68874,-10.24421c-6.85416,-5.54205 -12.47247,-10.26763 -12.48499,-10.5013c-0.0207,-0.38944 2.84101,-3.87154 22.87953,-27.8415l6.78281,-8.1129l0.14161,27.72113c0.07789,15.24703 0.01906,28.04249 -0.13127,28.43411M181.96377,61.01547l9.13743,10.91797l-1.75385,1.36168c-0.96462,0.74893 -4.21849,3.40366 -7.23053,5.89935c-3.01259,2.49624 -6.08999,4.97232 -6.83891,5.50283l-1.36168,0.96462l-6.37867,-7.40864l-6.37921,-7.40919l-0.0207,-17.33422l-0.02124,-17.33422l5.85523,6.96092c3.22065,3.82905 9.96697,11.87442 14.99212,17.87889M9.08075,53.40965c-1.53271,4.37209 -2.86389,7.87161 -2.95866,7.77684c-0.18682,-0.18682 1.13891,-14.99267 1.68903,-18.86638l0.33824,-2.37968l1.85897,2.7604l1.85897,2.75986l-2.78655,7.94896M284.91459,50.78106c0.51308,5.59161 0.84479,10.2551 0.73694,10.36349c-0.10839,0.10785 -1.43249,-3.39113 -2.94232,-7.7763l-2.74624,-7.97292l1.68522,-2.39003c0.92649,-1.31484 1.83065,-2.39057 2.00875,-2.39057c0.17811,0 0.74402,4.57471 1.25765,10.16632M30.04413,51.49785c2.6531,4.78168 4.85903,9.06009 4.90206,9.50781c0.09532,0.98749 -8.44407,13.35974 -9.10257,13.18926c-0.49184,-0.128 -10.69956,-26.671 -10.69956,-27.82299c0,-0.54631 7.4947,-3.30889 9.53178,-3.51314c0.29957,-0.0305 2.71519,3.85737 5.3683,8.63906M271.47315,44.15348c2.36334,0.74784 4.5856,1.46844 4.93801,1.60134c0.42702,0.16122 -0.90743,4.30346 -3.993,12.39349c-2.54852,6.68314 -4.94018,12.99535 -5.31492,14.02696c-0.37474,1.03161 -0.90634,1.9374 -1.1814,2.01257c-0.2756,0.07571 -2.53001,-2.8225 -5.0099,-6.44076l-4.50935,-6.57856l5.05402,-9.1712c2.77947,-5.04422 5.20381,-9.17883 5.38682,-9.18754c0.18301,-0.00926 2.26638,0.59533 4.62972,1.34371M147.84001,54.7087c0.4194,2.09754 -0.50001,3.33558 -2.47663,3.33558c-1.82629,0 -2.7604,-0.90416 -2.78491,-2.69613l-0.01961,-1.38892l-0.77834,1.36168c-1.26146,2.20647 -0.9973,4.26043 0.77507,6.03334c2.04743,2.04743 4.72014,2.15691 6.74904,0.27669c2.68796,-2.49133 2.44122,-5.82855 -0.57899,-7.81497c-1.1961,-0.78705 -1.21734,-0.76527 -0.88564,0.89272M49.06138,67.13051c5.46089,2.00113 10.02961,3.71521 10.15216,3.8089c0.4597,0.34968 -1.78217,6.71309 -2.36497,6.71309c-0.33388,0 -4.26751,-1.46081 -8.74146,-3.24571c-4.47394,-1.78544 -8.22674,-3.15311 -8.34003,-3.03982c-0.11329,0.11329 0.30828,0.48095 0.93738,0.81755c0.62855,0.33661 4.31381,2.67761 8.18861,5.20272l7.04589,4.59105l-0.86167,2.60299c-0.47387,1.4314 -1.05993,2.82195 -1.30286,3.08939c-0.49238,0.54249 -25.52011,-10.00564 -25.54353,-10.76601c-0.01416,-0.45044 2.53436,-4.19235 7.1875,-10.55413c1.15035,-1.57302 2.45702,-2.85953 2.90311,-2.85953c0.44609,0 5.27952,1.63783 10.73986,3.6395M258.88521,69.74113c2.39656,3.40366 4.42383,6.51483 4.50445,6.91408c0.0866,0.42484 -1.04033,1.22061 -2.72336,1.9227c-1.57846,0.65851 -7.14938,3.04853 -12.37878,5.31056c-5.22995,2.26203 -9.7088,4.11283 -9.9539,4.11283c-0.53759,0 -1.30994,-1.93359 -1.78544,-4.4685l-0.34968,-1.86115l7.93915,-5.04531c4.36664,-2.77456 7.93915,-5.14607 7.93915,-5.26917c0,-0.12364 -1.16397,0.23258 -2.5872,0.79087c-12.05688,4.73484 -14.45072,5.56656 -14.84125,5.15642c-0.24565,-0.25817 -0.82681,-1.76746 -1.29142,-3.3541c-0.78433,-2.67925 -0.77834,-2.91182 0.0866,-3.26531c5.24193,-2.14002 19.14743,-7.0802 19.99495,-7.10308c0.78433,-0.0207 2.30996,1.70483 5.44673,6.15916M14.68653,73.86703c3.99627,4.5088 7.34546,8.55518 7.44296,8.99146c0.0975,0.43683 -0.10948,1.66125 -0.45916,2.72119c-0.77507,2.34917 -1.28379,2.04361 -3.9467,-2.37151c-2.68524,-4.45216 -8.91031,-14.54005 -9.97242,-16.16099c-1.87858,-2.86716 -0.10403,-1.12203 6.93532,6.81985M283.56271,67.77595c-4.32089,7.24306 -12.20176,19.6774 -12.47247,19.67849c-0.63454,0.00381 -1.62748,-4.37372 -1.1754,-5.18147c0.49674,-0.88782 14.43547,-16.60327 14.72578,-16.60327c0.09804,0 -0.38726,0.94773 -1.07791,2.10625M88.67273,69.81085c4.19507,1.67868 7.6276,3.21902 7.6276,3.42273c0,0.20425 -2.75713,3.46902 -6.12757,7.25613c-3.36989,3.78711 -8.94625,10.07482 -12.39131,13.97359c-3.44506,3.89877 -6.67007,7.10363 -7.16681,7.1216c-0.82736,0.0305 -0.81701,-0.25273 0.12419,-3.37098c2.0703,-6.85852 10.01272,-31.45486 10.15761,-31.45486c0.0817,0 3.58122,1.37367 7.7763,3.0518M211.96218,69.34624c0.42811,1.42323 2.7348,8.71477 5.12646,16.20402c2.39111,7.48925 4.52896,14.2018 4.74955,14.91641c0.37474,1.21026 0.29521,1.27345 -1.1558,0.91451c-0.85732,-0.21133 -1.74186,-0.56319 -1.96572,-0.78106c-0.44718,-0.43465 -11.41253,-32.30074 -11.17669,-32.47994c2.54308,-1.93413 3.55617,-1.65363 4.4222,1.22606M73.67788,67.81789c0.17484,0.28323 -1.04523,4.75608 -2.71138,9.94028c-3.93799,12.25569 -4.06544,12.56615 -4.87101,11.89784c-0.35894,-0.29848 -1.56212,-0.92213 -2.67326,-1.38619l-2.02019,-0.84424l-1.05775,2.33011c-0.58171,1.28216 -1.0632,1.95755 -1.06974,1.50112c-0.01253,-0.85949 6.78009,-22.50099 7.35363,-23.42856c0.41885,-0.67757 6.63139,-0.68629 7.0497,-0.01035M226.15146,70.43559c0.52888,1.72226 2.16725,6.90972 3.6395,11.52637c2.78546,8.73274 3.41238,11.79544 1.5948,7.791l-1.05939,-2.33338l-2.66835,1.35242l-2.66835,1.35242l-3.58231,-10.96862c-1.97008,-6.03225 -3.45922,-11.16689 -3.30889,-11.41035c0.14979,-0.24292 1.80668,-0.44173 3.68144,-0.44173h3.40911l0.96244,3.13187M111.53701,84.44676l10.53997,8.70061l-11.66254,1.4728c-6.41461,0.81047 -12.04762,1.49077 -12.51713,1.51201c-0.76036,0.03486 -0.71679,-1.02453 0.3938,-9.62873c0.68683,-5.3171 1.25493,-10.10913 1.26255,-10.64836c0.01961,-1.31103 -0.22441,-1.48587 11.98335,8.59167M193.78426,88.8183c0.52779,3.89441 0.91614,7.13631 0.86222,7.20384c-0.13726,0.17321 -13.25407,-1.44502 -15.51828,-1.91453c-1.72825,-0.35839 -1.91725,-0.60459 -2.51639,-3.27784l-0.64707,-2.89003l5.34161,-4.32579c2.93742,-2.37913 6.52082,-5.34869 7.96257,-6.5998l2.62151,-2.27401l0.46678,3.49843c0.25654,1.92433 0.89871,6.68532 1.42704,10.57973M147.83565,78.65252c0.20861,1.04196 0.01416,1.83991 -0.59696,2.45103c-1.86006,1.86006 -4.23265,0.62583 -4.23265,-2.20266v-1.47116l-1.02126,1.26092c-0.59805,0.73858 -1.02126,2.11878 -1.02126,3.33122c0,3.78112 4.85903,6.27627 7.97401,4.09485c2.57304,-1.80232 2.93306,-5.72724 0.72714,-7.93316c-1.51256,-1.51256 -2.19013,-1.33826 -1.82901,0.46896M35.02462,92.10867c5.09269,3.22773 10.42613,6.60362 11.85263,7.50178c1.42595,0.89817 2.49896,1.72716 2.38403,1.84208c-0.20807,0.20752 -23.69709,-9.84823 -25.84691,-11.06503c-0.09423,-0.05392 0.10458,-1.12312 0.44173,-2.37695c0.36983,-1.37203 0.87148,-2.1776 1.26146,-2.02455c0.35622,0.13944 4.81436,2.89494 9.90706,6.12267M267.81894,87.53777c0.92594,2.65583 0.77725,2.9652 -1.98915,4.14333c-1.42323,0.60568 -7.21038,3.103 -12.86027,5.54913c-5.65044,2.44667 -10.36131,4.36065 -10.46807,4.25335c-0.1073,-0.1073 3.16727,-2.31867 7.27738,-4.91349c4.10956,-2.59537 9.55574,-6.05132 12.10209,-7.67989c2.54635,-1.62857 4.78931,-2.98481 4.98485,-3.01422c0.19554,-0.02941 0.6242,0.71842 0.95318,1.6618M150.25345,100.74392l4.115,3.47175l1.22606,17.08421c0.67431,9.39615 1.5801,21.66328 2.01257,27.26088c0.43247,5.59706 0.78596,10.7611 0.78596,11.47463c0,1.03107 -1.28761,2.22499 -6.25339,5.79968l-6.25285,4.50172l-6.27463,-4.46305c-3.4505,-2.45484 -6.27409,-4.7038 -6.27409,-4.99792c0,-0.81047 2.09481,-30.84211 3.00768,-43.12013c0.44282,-5.95273 0.80503,-11.39946 0.80503,-12.10263c0,-0.92159 1.16614,-2.27455 4.16838,-4.83561c2.29253,-1.95647 4.31435,-3.55399 4.49355,-3.55127c0.17865,0.00327 2.17706,1.56811 4.44072,3.47774M136.39425,99.60609c-3.85846,2.93089 -3.60465,2.33175 -4.19888,9.90978c-0.30556,3.89441 -0.64108,7.34873 -0.74566,7.67608c-0.1171,0.36656 -2.98644,0.7364 -7.45712,0.96189c-16.75795,0.84533 -36.88689,3.8857 -54.32623,8.2055c-3.11498,0.7718 -5.87266,1.40308 -6.12757,1.40308c-0.25491,0 -0.46352,-4.01261 -0.46352,-8.9163v-8.91684l5.85523,-1.70047c16.02755,-4.65532 35.12378,-7.791 57.8715,-9.504c1.34807,-0.10131 4.41185,-0.21351 6.80841,-0.24946l4.35738,-0.06482l-1.57356,1.19556M167.92483,98.91599c21.51077,1.58336 40.14512,4.78768 56.94937,9.79213l3.78166,1.12638v8.96368c0,4.93038 -0.13944,8.96423 -0.30992,8.96423c-0.17048,0 -2.68251,-0.59751 -5.5829,-1.32846c-17.38487,-4.37917 -37.25509,-7.37977 -55.38289,-8.36345l-7.08075,-0.38454l-0.62365,-7.56115l-0.62311,-7.56115l-2.3726,-2.08337l-2.37205,-2.08392l2.9957,-0.0207c1.64764,-0.01198 6.42714,0.23149 10.62112,0.54032M145.86557,101.7728c0,1.03978 0.34151,2.17379 0.75818,2.5202c0.41722,0.34587 1.06375,1.36604 1.43685,2.26638c0.60949,1.47116 0.55012,1.77346 -0.58117,2.97773c-1.46626,1.56103 -2.17161,1.64328 -4.36446,0.50927c-1.56757,-0.81047 -1.60679,-0.79849 -1.60679,0.50055c0,2.08828 0.51363,2.94614 2.4995,4.17328l1.84753,1.14163l0.14107,25.50213l0.14161,25.50159l4.08505,-2.97228c2.24678,-1.63511 4.42492,-3.17 4.83996,-3.41129c0.63781,-0.36983 0.52997,-3.40584 -0.69882,-19.61967c-0.79958,-10.55032 -1.60134,-22.77713 -1.78217,-27.17101c-0.18083,-4.39333 -0.57681,-8.30191 -0.87965,-8.6859c-0.30338,-0.38345 -1.74023,-1.69339 -3.19396,-2.91019l-2.64275,-2.21246v1.89002M189.98408,110.56873c0,7.67063 -0.51254,6.92388 5.44673,7.93207c10.2856,1.74023 26.3186,5.38518 30.14547,6.85362c0.80993,0.31101 0.90089,-0.37474 0.90089,-6.77791v-7.12378l-2.85953,-0.82137c-6.65808,-1.91235 -30.347,-6.83456 -32.89117,-6.83456c-0.58716,0 -0.74239,1.41778 -0.74239,6.77192M113.45426,105.56808c-0.94174,0.80993 -1.52617,1.97444 -1.72171,3.43035c-0.77235,5.75937 7.1216,8.11399 9.34713,2.78818c0.97823,-2.34155 0.46787,-4.46305 -1.46463,-6.08944c-2.00494,-1.68685 -4.2942,-1.73478 -6.1608,-0.12909M171.96793,105.93356c-2.56759,2.56813 -2.10462,6.49141 0.95917,8.12325c4.27024,2.27401 8.82588,-1.87476 6.95166,-6.33128c-1.50711,-3.58504 -5.26644,-4.43636 -7.91083,-1.79197M118.62593,106.78543c0.38563,0.46461 0.52561,1.39382 0.32898,2.17869c-0.26689,1.06266 -0.69228,1.36876 -1.90091,1.36876c-2.14982,0 -3.12424,-1.26146 -2.3263,-3.01204c0.70099,-1.53925 2.82358,-1.83065 3.89822,-0.53541M176.91193,107.06485c0.87965,1.64382 -0.20316,3.26804 -2.17869,3.26804c-1.03815,0 -1.7996,-0.38073 -2.17869,-1.08935c-0.87965,-1.64382 0.20316,-3.26804 2.17869,-3.26804c1.03815,0 1.7996,0.38073 2.17869,1.08935M73.25195,109.51043c-3.83886,0.9913 -7.12432,1.94557 -7.30025,2.1215c-0.17593,0.17593 -0.43955,3.42654 -0.58552,7.22345c-0.25436,6.60579 -0.22168,6.8863 0.76418,6.49849c0.56646,-0.22332 4.09376,-1.27562 7.83839,-2.33937c3.74463,-1.0632 6.98598,-2.09045 7.2033,-2.28327c0.46406,-0.41014 -0.13508,-13.14514 -0.61439,-13.07215c-0.17865,0.02723 -3.4663,0.86004 -7.3057,1.85134M90.43365,108.51858c-0.38073,0.1536 -1.07028,1.00982 -1.53217,1.90309c-2.40364,4.64769 3.49462,9.31173 7.15101,5.65479c3.72447,-3.72393 -0.62093,-9.56882 -5.61885,-7.55788M200.36882,109.2626c1.42432,0.76254 1.34316,2.98426 -0.14706,4.02786c-1.02235,0.71624 -1.36495,0.7315 -2.31486,0.10185c-1.48859,-0.98695 -1.69066,-2.36551 -0.53323,-3.64441c1.08608,-1.20046 1.52617,-1.27127 2.99516,-0.4853M94.55737,109.89715c1.61169,1.61169 0.0158,4.07198 -2.2702,3.49843c-1.46136,-0.36711 -2.09209,-1.90581 -1.33554,-3.25769c0.58443,-1.04414 2.66345,-1.18303 3.60574,-0.24075M73.8598,113.70986c1.53325,1.53325 0.18791,4.55782 -1.84916,4.15749c-1.52508,-0.30011 -2.15691,-1.80777 -1.42813,-3.40693c0.67812,-1.48914 2.19231,-1.83555 3.2773,-0.75056M220.71943,113.91193c0.4706,0.47114 0.85568,1.18902 0.85568,1.59535c0,0.92213 -1.48532,2.45103 -2.38077,2.45103c-1.02562,0 -1.97662,-1.17922 -1.97662,-2.45103c0,-2.24078 1.96191,-3.13459 3.5017,-1.59535M129.31949,130.81586c0.58607,0.8693 0.68411,2.10298 0.40524,5.09814l-0.36711,3.95215l-2.88568,1.8459c-1.58718,1.01527 -3.20377,1.84535 -3.59266,1.84426c-0.3889,-0.00109 -5.10849,-3.86119 -10.48822,-8.57751l-9.78069,-8.57588l2.42761,-0.41504c1.33554,-0.22822 5.98214,-0.74947 10.32591,-1.15852l7.89776,-0.74457l2.64275,2.79199c1.45373,1.53543 2.99025,3.30834 3.4151,3.93908M180.95395,125.33917c4.17056,0.43683 7.71094,0.92268 7.8678,1.079c0.15632,0.15687 -0.65143,1.05667 -1.79579,2.00004c-1.1449,0.94337 -5.29749,4.51752 -9.22948,7.94297c-3.93145,3.42545 -7.69568,6.48379 -8.36454,6.79588c-1.0169,0.47441 -1.70156,0.2451 -4.17546,-1.39763l-2.95921,-1.96464l-0.20371,-3.97393c-0.22059,-4.31218 0.12636,-5.10032 4.27296,-9.70063c1.97716,-2.1934 1.39872,-2.16235 14.58743,-0.78106M84.41611,131.97601c1.46789,1.1193 2.76748,2.52892 2.88786,3.13187c1.0485,5.24738 1.75385,7.2338 3.53003,9.94736c3.59811,5.49684 4.33832,5.94619 13.00298,7.89449l7.71693,1.73533l-2.58829,0.99239c-1.42378,0.54576 -5.06328,1.96409 -8.08785,3.15148c-3.02457,1.18684 -5.76155,2.15854 -6.08236,2.15854c-0.32081,0 -2.68687,-2.2544 -5.25827,-5.0099c-2.5714,-2.75605 -4.67493,-4.85794 -4.67493,-4.67166c0,0.39979 6.97345,12.95123 7.67553,13.81454c0.33443,0.41177 3.7675,-0.53977 11.24532,-3.11771c5.92005,-2.04035 10.92832,-3.71685 11.12985,-3.72447c0.20098,-0.00763 -3.79692,8.50289 -8.88416,18.91322c-8.27631,16.93388 -10.50293,20.83374 -11.89511,20.83374c-0.22713,0 -0.72169,-3.9113 -1.09969,-8.69189l-0.68683,-8.69244l-8.09275,-9.41794c-6.56276,-7.63795 -8.09112,-9.72731 -8.08404,-11.0525c0.00436,-0.89871 0.34587,-7.33184 0.75927,-14.29658c0.41286,-6.96419 0.62964,-13.12553 0.48149,-13.69144c-0.19826,-0.7571 0.13944,-1.17813 1.27617,-1.59262c2.4336,-0.88618 2.89548,-0.77452 5.72887,1.38619M212.48289,130.51629l2.28381,0.57517v5.5524c0,3.05398 0.21515,9.96643 0.47822,15.36196l0.47877,9.80956l-7.94514,9.18754c-8.87817,10.26763 -8.13088,8.60638 -9.06608,20.15181c-0.28868,3.56053 -0.634,6.58292 -0.7669,6.71582c-0.1329,0.1329 -0.81429,-0.13998 -1.51419,-0.60622c-0.83607,-0.5572 -4.42492,-7.3106 -10.45881,-19.68012c-5.05239,-10.3575 -9.08732,-18.93065 -8.96641,-19.05103c0.12092,-0.12092 4.8514,1.37149 10.51219,3.31651c5.66079,1.94503 10.65925,3.46575 11.10697,3.37915c0.44772,-0.08606 1.45646,-1.25928 2.24078,-2.60735c2.40092,-4.12644 6.56494,-11.98281 6.35143,-11.98281c-0.11111,0 -2.23697,2.26747 -4.7234,5.03823c-2.48698,2.77075 -4.74247,5.12537 -5.01317,5.23213c-0.57517,0.22713 -16.86199,-5.98922 -16.53845,-6.31222c0.11983,-0.11983 3.47937,-0.9352 7.46529,-1.81213c6.93205,-1.52508 7.34927,-1.69502 9.61075,-3.91239c2.77892,-2.72609 5.26426,-7.42335 6.12757,-11.57975c0.51417,-2.47826 1.02344,-3.32305 3.10736,-5.15751c1.37094,-1.207 2.59428,-2.19394 2.71901,-2.19394c0.12473,0 1.25438,0.25872 2.5104,0.57517M98.46813,135.17487c1.96246,0.78487 2.18959,1.07028 2.18959,2.75005c0,2.55615 1.36767,5.00064 3.03111,5.41841c0.75764,0.19009 2.30723,0.19717 3.44288,0.01525c1.73424,-0.27724 2.26747,-0.11438 3.32904,1.01527l1.26419,1.34589l-1.97553,0.82518c-6.91136,2.88786 -13.69798,-1.3083 -14.3859,-8.89397c-0.33988,-3.75171 -0.25382,-3.82034 3.10464,-2.47608M196.52016,136.84974c0,3.25551 -1.7277,6.85308 -4.19398,8.73438c-2.43632,1.85842 -7.05025,2.30288 -10.16687,0.97932l-2.10571,-0.89435l1.20536,-1.28325c1.06701,-1.13564 1.54524,-1.24785 4.1662,-0.97714c2.58393,0.26635 3.13187,0.14488 4.30455,-0.95699c1.06211,-0.99784 1.34371,-1.80341 1.34371,-3.84539c0,-2.54744 0.03214,-2.59428 2.31486,-3.40257c3.22174,-1.14 3.13187,-1.18739 3.13187,1.646M221.49723,147.92894c1.48968,3.43743 4.0954,9.43047 5.78987,13.3178l3.08067,7.06713l-2.76912,7.63904c-1.52345,4.20106 -4.69508,12.6631 -7.04861,18.80429l-4.2795,11.1658l-5.15587,0.15469l-5.15587,0.15469l-2.06322,-3.10681l-2.06268,-3.10681l0.62692,-8.98983l0.62746,-8.99037l2.37477,-2.76367c1.30613,-1.52018 4.98703,-5.70545 8.18044,-9.30029l5.80621,-6.53608l-0.32789,-8.9871c-0.18029,-4.94291 -0.47169,-9.96752 -0.64653,-11.1658c-0.17538,-1.19828 -0.17647,-2.05015 -0.00272,-1.89274c0.1743,0.15741 1.53543,3.09864 3.02566,6.53608M73.21545,146.96214c-0.17103,2.77075 -0.45644,7.52084 -0.63454,10.55522l-0.32408,5.51754l8.20495,9.57699l8.20495,9.57699l0.54413,6.14772c0.93411,10.55576 0.82518,11.75023 -1.36767,15.00629l-1.92052,2.85245h-5.10195c-4.34758,0 -5.1586,-0.14107 -5.48976,-0.95318c-0.21351,-0.52398 -3.42109,-9.00127 -7.12759,-18.8386l-6.73924,-17.88488l5.78824,-13.29765c3.18361,-7.31332 5.89772,-13.2971 6.03116,-13.2971c0.1329,0 0.1024,2.26747 -0.06808,5.03823M127.77752,155.67691c-0.17647,1.13946 -0.25545,1.10296 -1.12747,-0.51744c-0.88891,-1.65308 -0.88782,-1.77128 0.0158,-2.28272c0.75383,-0.42648 0.98967,-0.31863 1.12747,0.51744c0.09532,0.58171 0.08824,1.60842 -0.0158,2.28272M166.01466,153.78962c-0.00163,0.21406 -0.49021,1.12475 -1.08553,2.02346l-1.08227,1.63402l-0.00327,-2.60626c-0.00381,-2.43796 0.06645,-2.56868 1.08553,-2.02346c0.59914,0.32081 1.08771,0.75818 1.08553,0.97224M124.75404,160.11l2.58229,3.43035l-2.70267,15.47253c-1.48641,8.50943 -2.83502,16.22472 -2.99679,17.14522c-0.16231,0.91995 -2.78491,5.20925 -5.82855,9.53178c-3.04309,4.32198 -6.08672,8.66357 -6.7632,9.64779c-0.67648,0.98422 -2.01638,4.15041 -2.97773,7.03609l-1.74731,5.24629l-0.9559,-3.08884c-0.78978,-2.55288 -5.30784,-11.00294 -8.5432,-15.97907c-0.74076,-1.13946 -0.36983,-1.5033 9.84823,-9.65814c5.83998,-4.66077 10.75784,-8.70061 10.92886,-8.9773c0.17157,-0.27724 -2.20048,0.45371 -5.27026,1.62367c-3.07032,1.16996 -5.73595,2.12749 -5.92386,2.12749c-0.18791,0 0.88019,-2.51258 2.37314,-5.5829c3.21139,-6.60579 13.39187,-28.47006 14.07544,-30.22935c0.26144,-0.67431 0.66559,-1.21408 0.89762,-1.20046c0.23203,0.01362 1.58391,1.56811 3.00387,3.45486M171.4652,158.85889c0,0.21242 3.65367,8.13142 8.1189,17.59784c4.46523,9.46587 7.95767,17.21112 7.7605,17.21112c-0.19772,0 -2.87043,-0.95754 -5.94075,-2.12749c-3.06978,-1.16996 -5.58126,-2.04198 -5.58126,-1.9374c0,0.25436 9.15813,7.67662 15.99487,12.96267c3.03601,2.34754 5.59869,4.4832 5.69456,4.74628c0.09641,0.26362 -0.94882,2.21627 -2.32249,4.33941c-3.02457,4.67547 -6.206,10.90326 -7.08728,13.87337l-0.64871,2.18523l-1.83337,-5.54314c-1.6569,-5.0099 -2.4739,-6.44294 -8.50017,-14.90715c-6.38792,-8.97131 -6.69458,-9.52742 -7.30897,-13.24863c-0.35295,-2.13566 -1.59535,-9.26543 -2.76149,-15.84399c-1.16614,-6.57802 -2.12041,-12.70559 -2.11987,-13.61682c0,-1.1449 0.78106,-2.65147 2.52892,-4.87755c2.35244,-2.99679 2.58012,-3.15093 3.26749,-2.21083c0.40687,0.55557 0.73912,1.18412 0.73912,1.39709M164.03804,178.68934c1.05993,6.89011 2.1776,14.39625 2.48371,16.68061c0.50655,3.78275 0.87093,4.63027 4.08832,9.50945c1.9423,2.94614 3.45105,5.43747 3.35246,5.5366c-0.09913,0.09859 -3.09102,-2.01856 -6.64882,-4.70489c-5.93802,-4.48211 -7.08783,-5.11012 -13.98829,-7.63904l-7.51921,-2.75496l-6.91462,2.56595c-6.72943,2.49733 -11.26983,5.11666 -18.87728,10.89074c-1.48641,1.12802 -2.47935,1.68358 -2.20647,1.23423c0.27234,-0.44936 1.87694,-2.92653 3.56543,-5.50501l3.06978,-4.68855l1.99405,-12.46865c1.09643,-6.85798 2.28436,-14.36902 2.63894,-16.69041c0.35458,-2.3214 0.79686,-4.22122 0.98259,-4.22122c0.18573,0 3.75715,2.45103 7.93643,5.44673c4.17873,2.9957 7.72564,5.44673 7.88196,5.44673c0.15578,0 3.83232,-2.54744 8.17009,-5.66133c4.33723,-3.1139 7.92608,-5.62647 7.97456,-5.5829c0.04902,0.04303 0.9559,5.7158 2.01638,12.60591M35.39118,181.64692c2.42706,5.80404 7.58512,15.6136 10.68921,20.32774c1.14381,1.73751 9.76708,8.51977 13.4556,10.58245c0.71679,0.40088 6.46799,0.85568 15.28026,1.20754l14.131,0.56483l1.16778,1.45264c1.40689,1.74894 6.49032,11.54108 6.15208,11.84827c-0.31155,0.28323 -39.65056,-1.5545 -39.90165,-1.86333c-0.10512,-0.12963 -3.63678,-3.93472 -7.84819,-8.45605c-8.22347,-8.82915 -8.52686,-9.27251 -11.70448,-17.10709c-1.15416,-2.84592 -1.98533,-4.56164 -1.84699,-3.81271c0.13835,0.74893 0.79413,4.11773 1.45646,7.48599l1.20482,6.12376l4.64715,5.31437c2.55561,2.92272 6.19348,6.99306 8.08404,9.04538c3.75334,4.07524 3.73755,3.93744 0.83008,7.38086l-1.56485,1.85298l-8.32478,-9.99312c-4.57852,-5.49575 -8.63525,-10.7415 -9.01543,-11.65709c-2.08882,-5.03114 -2.82086,-22.19488 -1.40471,-32.92439c0.86058,-6.51974 0.63237,-6.65264 4.51262,2.62696M261.3504,184.15296c0.46461,5.26699 0.47114,9.13035 0.02397,14.97851c-0.96189,12.57487 -0.81102,12.20993 -9.38853,22.72267c-4.09431,5.01807 -8.03393,9.67775 -8.75507,10.35423l-1.31103,1.23042l-1.72988,-2.40854c-0.95154,-1.32519 -1.72988,-2.58012 -1.72988,-2.78873c0,-0.20915 2.76803,-3.47774 6.15099,-7.2643c9.62601,-10.77363 9.32807,-10.28506 10.94902,-17.9753c1.89437,-8.98928 1.76474,-9.56064 -0.68302,-3.00823c-1.13129,3.03002 -2.65365,6.51265 -3.38187,7.7398c-0.72877,1.22715 -4.7087,5.8792 -8.84549,10.33789l-7.5203,8.10691l-10.18157,0.36929c-5.59924,0.20316 -14.4627,0.59642 -19.69538,0.8742c-5.23267,0.27724 -9.62982,0.3889 -9.77089,0.24783c-0.34587,-0.34587 4.66403,-10.05575 6.15045,-11.92017l1.18412,-1.48478l14.33743,-0.50328l14.33743,-0.50328l2.0654,-1.48859c1.13564,-0.81919 4.01152,-2.88731 6.39065,-4.59595c2.37968,-1.70864 4.93909,-4.03712 5.68802,-5.17439c3.01912,-4.5856 8.18643,-14.39135 10.56121,-20.04179c1.3851,-3.29527 2.77565,-6.60416 3.08993,-7.35309c0.57082,-1.3595 0.57245,-1.35841 1.00492,0.54467c0.23802,1.0485 0.71516,5.10032 1.05939,9.00399M54.94058,184.9972c-0.27833,1.62313 -0.67213,5.39281 -0.87529,8.37707c-0.40742,6.00175 -0.36548,5.98868 -3.31379,1.01582l-1.34807,-2.27401l2.00494,-3.98156c2.23479,-4.438 3.54528,-6.58237 3.84158,-6.28662c0.10839,0.10893 -0.03105,1.52563 -0.30937,3.1493M240.0526,187.38341c1.22116,2.49896 2.21954,4.75173 2.21845,5.00554c-0.00109,0.25436 -0.93902,1.87095 -2.08392,3.59375l-2.08228,3.13187l-0.63836,-7.85037c-0.35077,-4.31708 -0.80721,-8.30027 -1.01364,-8.85039c-0.32408,-0.8644 -0.256,-0.90361 0.50219,-0.28813c0.48258,0.39271 1.8764,2.75822 3.09756,5.25773M140.93846,188.11164c-1.96137,0.80884 -4.4124,2.00658 -5.44673,2.66073c-1.88076,1.18902 -5.93585,5.07417 -5.29694,5.07417c0.18628,0 3.68417,-1.36168 7.77412,-3.02566l7.43588,-3.02566l2.81759,0.93085c1.54959,0.51199 5.39117,1.99241 8.53666,3.29037l5.71907,2.35952l-3.07904,-2.91509c-2.16126,-2.04688 -4.33396,-3.43798 -7.2899,-4.66839c-5.64771,-2.35135 -6.93314,-2.42979 -11.1707,-0.68084M149.95062,204.01446c5.63519,2.01801 8.21258,3.4151 14.36847,7.78937c3.48101,2.4739 7.61126,5.34869 9.17828,6.38901c2.11932,1.40743 3.04745,2.44939 3.6248,4.07034c0.42648,1.19828 1.86605,5.24248 3.19886,8.9871l2.42325,6.80841l-2.23534,3.22991c-1.22933,1.77672 -3.3383,4.42983 -4.68637,5.89663l-2.45103,2.66617l-10.89346,-2.2495c-18.14088,-3.74681 -15.04114,-3.68744 -30.47936,-0.58716l-13.59504,2.7299l-1.32573,-1.21299c-2.19285,-2.00658 -7.70549,-9.67938 -7.70549,-10.72461c0,-0.53596 0.58389,-2.29471 1.29741,-3.90857c0.71407,-1.61387 1.98533,-5.2245 2.82522,-8.02358c1.73533,-5.78225 0.76472,-4.77242 12.65112,-13.16093c5.87757,-4.14823 9.21532,-6.0791 13.61682,-7.87706c3.20649,-1.30994 6.19783,-2.25059 6.64719,-2.08991c0.44936,0.16068 2.04252,0.73095 3.54037,1.26745M128.1637,220.94017c-2.39656,1.47007 -4.75282,3.22719 -5.23594,3.90476c-1.04958,1.47116 -3.75116,9.46751 -3.75116,11.10316c0,0.63454 0.99185,2.22662 2.20429,3.5382c2.17052,2.34809 2.28436,2.26693 1.35841,-0.96843c-0.29249,-1.02235 0.01688,-1.29196 2.38567,-2.07902c1.49676,-0.49674 3.61826,-1.51256 4.71414,-2.25604c1.09588,-0.74402 2.1117,-1.23314 2.25712,-1.08771c0.14543,0.14488 -0.36003,1.62803 -1.12312,3.29473c-0.76309,1.6667 -1.21299,3.03056 -0.99947,3.03056c0.21351,0 1.26037,-0.5926 2.32684,-1.31702c3.39658,-2.30832 6.34054,-11.18268 5.20707,-15.69802c-0.44663,-1.77999 -2.80125,-4.23756 -4.00716,-4.18309c-0.53868,0.02451 -2.94014,1.2473 -5.33671,2.71792M156.03679,219.79908c-1.69884,2.01856 -2.21954,4.28331 -1.7326,7.53119c0.67703,4.51371 2.36443,8.11508 4.76589,10.17068c2.86934,2.45593 3.41292,2.42488 2.12749,-0.1231c-2.27401,-4.50608 -2.18414,-4.62427 1.9374,-2.54798c2.03544,1.02507 4.28276,1.86442 4.99411,1.8655c1.12094,0.00163 1.25329,0.20153 0.9913,1.49948c-0.16613,0.82355 -0.47986,1.98806 -0.69664,2.5872c-0.31155,0.86004 -0.02288,0.74566 1.37203,-0.54467c3.27022,-3.02457 3.40584,-3.76641 1.67378,-9.15323c-0.84315,-2.62151 -1.91561,-5.35032 -2.38403,-6.06493c-0.93357,-1.42486 -9.52796,-6.84109 -10.85588,-6.84109c-0.45589,0 -1.44284,0.72932 -2.19285,1.62095M82.38611,230.72032c6.27736,0.2914 12.22083,0.52997 13.20832,0.52997h1.79524v2.9957v2.9957l-1.77019,0.01144c-3.29418,0.0207 -38.79488,-1.7021 -40.5618,-1.96899l-1.75385,-0.26417l1.96409,-2.73371l1.96355,-2.73371l6.87105,0.31863c3.77894,0.17538 12.00623,0.5572 18.28358,0.84915M236.5204,232.20346l1.88402,2.5872l-1.74241,0.37474c-1.60896,0.34641 -35.64503,2.10897 -40.27802,2.0861l-2.04252,-0.0098v-2.9957v-2.9957l3.13187,-0.0512c1.7228,-0.02832 9.38199,-0.36112 17.02103,-0.73967c7.63904,-0.37855 15.29605,-0.72333 17.01558,-0.76581l3.12697,-0.07734l1.88348,2.5872M95.79487,245.201c1.7386,0.28759 2.22172,0.78324 4.54584,4.66186c1.43086,2.38676 2.4946,4.44671 2.36388,4.57689c-0.25709,0.25763 -16.20838,-7.24034 -16.20838,-7.61889c0,-0.12691 -0.1487,-0.6182 -0.33062,-1.09207c-0.28323,-0.73803 0.2451,-0.86058 3.67654,-0.85568c2.20375,0.00327 4.88245,0.15087 5.95273,0.32789M205.7796,245.5997c0,1.22061 -1.66724,2.34046 -6.92116,4.64769c-2.75768,1.2119 -6.25067,2.82903 -7.76159,3.59484c-1.51038,0.76581 -2.74679,1.27345 -2.74679,1.12856c0,-0.93793 5.83181,-9.19898 6.7583,-9.57372c0.62637,-0.25327 3.28438,-0.47659 5.90534,-0.49565c3.64604,-0.02614 4.76589,0.1378 4.76589,0.69827M168.10239,257.4349c4.68255,1.05721 6.1145,1.08662 8.49091,0.1743c0.87474,-0.33552 -1.59371,4.52133 -4.054,7.97728l-1.10623,1.55341l-3.41728,-2.38894c-3.23971,-2.26475 -3.90422,-2.48534 -12.84121,-4.25771l-9.42393,-1.86877l-9.28123,1.8557c-9.23765,1.84644 -10.27362,2.24514 -14.20725,5.46253c-0.84915,0.695 -1.77182,1.12203 -2.05124,0.94991c-0.58008,-0.35839 -5.39172,-8.44788 -5.39172,-9.06445c0,-0.22386 0.67431,-0.14815 1.49785,0.16721c1.15416,0.44227 2.74842,0.30992 6.94458,-0.57844c2.9957,-0.634 9.24582,-1.94938 13.88916,-2.92326l8.44243,-1.77019l8.71477,1.78217c4.79312,0.98041 11.00076,2.29852 13.79439,2.92925M154.76825,264.00202c6.52518,1.34861 8.74745,2.04416 10.60751,3.32087c1.29414,0.88836 2.27455,1.68903 2.17869,1.77945c-0.09586,0.09096 -4.98757,2.13512 -10.87058,4.54366l-10.69629,4.37863l-10.81829,-4.37263c-5.95001,-2.40528 -10.8793,-4.432 -10.95337,-4.50445c-0.07462,-0.07244 0.91287,-0.88455 2.19449,-1.8045c1.88784,-1.35569 3.8236,-1.98261 10.21153,-3.30453c4.33505,-0.89762 8.33404,-1.65635 8.88688,-1.68685c0.55284,-0.0305 4.71959,0.71243 9.25944,1.65036"/></svg>